M48
; DRILL file {KiCad (5.1.9)-1} date 07/19/24 16:57:10
; FORMAT={-:-/ absolute / metric / decimal}
; #@! TF.CreationDate,2024-07-19T16:57:10+09:00
; #@! TF.GenerationSoftware,Kicad,Pcbnew,(5.1.9)-1
FMAT,2
METRIC
T1C0.300
T2C0.800
T3C1.000
T4C3.200
%
G90
G05
T1
X28.223Y33.999
X28.223Y91.726
X28.686Y92.924
X30.599Y72.548
X30.924Y89.339
X32.963Y93.339
X35.889Y78.583
X38.524Y64.036
X38.641Y79.842
X41.204Y63.425
X42.671Y63.903
X45.595Y92.874
X49.5Y88.777
X51.026Y73.044
X51.488Y56.698
X59.102Y93.6
X60.442Y82.59
X62.503Y75.762
X62.743Y91.356
X64.745Y91.517
X67.192Y91.517
X69.39Y93.19
X73.421Y45.014
X75.656Y45.65
X75.987Y46.76
X78.143Y83.237
X80.233Y79.203
X84.37Y29.519
X84.549Y31.986
T2
X6.35Y66.04
X6.35Y50.8
X7.62Y39.37
X7.62Y36.83
X7.62Y34.29
X7.62Y31.75
X7.62Y29.21
X7.62Y26.67
X7.62Y24.13
X7.62Y21.59
X7.62Y19.05
X7.62Y16.51
X7.62Y13.97
X7.62Y11.43
X7.747Y81.026
X7.747Y78.526
X8.89Y66.04
X8.89Y50.8
X10.16Y33.02
X10.16Y30.48
X10.16Y22.86
X10.16Y20.32
X11.43Y83.82
X11.43Y76.2
X11.43Y66.04
X11.43Y50.8
X13.97Y83.82
X13.97Y76.2
X13.97Y66.04
X13.97Y50.8
X16.51Y90.17
X16.51Y87.67
X16.51Y83.82
X16.51Y76.2
X16.51Y66.04
X16.51Y50.8
X19.05Y83.82
X19.05Y76.2
X19.05Y66.04
X19.05Y50.8
X21.59Y83.82
X21.59Y76.2
X21.59Y66.04
X21.59Y50.8
X22.86Y39.37
X22.86Y36.83
X22.86Y34.29
X22.86Y31.75
X22.86Y29.21
X22.86Y26.67
X22.86Y24.13
X22.86Y21.59
X22.86Y19.05
X22.86Y16.51
X22.86Y13.97
X22.86Y11.43
X24.13Y83.82
X24.13Y76.2
X24.13Y66.04
X24.13Y50.8
X26.67Y83.82
X26.67Y76.2
X26.67Y66.04
X26.67Y50.8
X29.21Y66.04
X29.21Y50.8
X31.75Y66.04
X31.75Y50.8
X33.02Y81.28
X33.02Y78.78
X34.29Y66.04
X34.29Y50.8
X36.83Y83.82
X36.83Y76.2
X36.83Y66.04
X36.83Y50.8
X39.37Y83.82
X39.37Y76.2
X39.37Y66.04
X39.37Y50.8
X41.91Y83.82
X41.91Y76.2
X41.91Y66.04
X41.91Y50.8
X44.45Y83.82
X44.45Y76.2
X44.45Y66.04
X44.45Y50.8
X46.99Y83.82
X46.99Y76.2
X46.99Y66.04
X46.99Y50.8
X49.53Y83.82
X49.53Y76.2
X49.53Y66.04
X49.53Y50.8
X52.07Y83.82
X52.07Y76.2
X52.07Y66.04
X52.07Y50.8
X54.61Y66.04
X54.61Y50.8
X57.15Y85.09
X57.15Y82.59
X58.42Y59.69
X58.42Y57.19
X60.96Y87.63
X60.96Y80.01
X62.23Y66.04
X62.23Y63.5
X62.23Y60.96
X62.23Y58.42
X62.23Y55.88
X62.23Y53.34
X62.23Y50.8
X62.23Y40.64
X62.23Y38.1
X62.23Y35.56
X62.23Y33.02
X62.23Y30.48
X62.23Y27.94
X62.23Y25.4
X62.23Y22.86
X62.23Y20.32
X62.23Y17.78
X62.23Y15.24
X62.23Y12.7
X62.23Y10.16
X62.23Y7.62
X63.5Y87.63
X63.5Y80.01
X64.81Y69.85
X66.04Y87.63
X66.04Y80.01
X67.31Y69.85
X68.58Y87.63
X68.58Y80.01
X68.62Y44.45
X69.85Y66.04
X69.85Y63.5
X69.85Y60.96
X69.85Y58.42
X69.85Y55.88
X69.85Y53.34
X69.85Y50.8
X71.12Y87.63
X71.12Y80.01
X71.12Y44.45
X73.66Y87.63
X73.66Y80.01
X74.93Y71.12
X74.93Y68.58
X74.93Y66.04
X74.93Y63.5
X74.93Y60.96
X74.93Y58.42
X74.93Y55.88
X74.93Y53.34
X74.93Y50.8
X74.93Y48.26
X76.2Y87.63
X76.2Y80.01
X77.47Y40.64
X77.47Y38.1
X77.47Y35.56
X77.47Y33.02
X77.47Y30.48
X77.47Y27.94
X77.47Y25.4
X77.47Y22.86
X77.47Y20.32
X77.47Y17.78
X77.47Y15.24
X77.47Y12.7
X77.47Y10.16
X77.47Y7.62
X77.51Y74.93
X80.01Y74.93
X81.28Y85.09
X81.28Y82.59
X82.55Y71.12
X82.55Y68.58
X82.55Y66.04
X82.55Y63.5
X82.55Y60.96
X82.55Y58.42
X82.55Y55.88
X82.55Y53.34
X82.55Y50.8
X82.55Y48.26
X85.09Y87.63
X85.09Y80.01
X86.36Y66.04
X86.36Y63.54
X86.36Y53.34
X86.36Y50.84
X86.36Y40.64
X86.36Y38.14
X86.36Y26.67
X86.36Y24.17
X86.36Y13.97
X86.36Y11.47
X87.63Y87.63
X87.63Y80.01
X90.17Y87.63
X90.17Y80.01
X90.17Y72.39
X90.17Y68.58
X90.17Y60.96
X90.17Y55.88
X90.17Y48.26
X90.17Y43.18
X90.17Y35.56
X90.17Y29.21
X90.17Y21.59
X90.17Y16.51
X90.17Y8.89
X92.71Y87.63
X92.71Y80.01
X92.71Y68.58
X92.71Y60.96
X92.71Y55.88
X92.71Y48.26
X92.71Y43.18
X92.71Y35.56
X92.71Y29.21
X92.71Y21.59
X92.71Y16.51
X92.71Y8.89
X95.25Y87.63
X95.25Y80.01
X95.25Y68.58
X95.25Y60.96
X95.25Y55.88
X95.25Y48.26
X95.25Y43.18
X95.25Y35.56
X95.25Y29.21
X95.25Y21.59
X95.25Y16.51
X95.25Y8.89
X97.79Y87.63
X97.79Y80.01
X97.79Y72.39
X97.79Y68.58
X97.79Y60.96
X97.79Y55.88
X97.79Y48.26
X97.79Y43.18
X97.79Y35.56
X97.79Y29.21
X97.79Y21.59
X97.79Y16.51
X97.79Y8.89
X100.33Y87.63
X100.33Y80.01
X100.33Y68.58
X100.33Y60.96
X100.33Y55.88
X100.33Y48.26
X100.33Y43.18
X100.33Y35.56
X100.33Y29.21
X100.33Y21.59
X100.33Y16.51
X100.33Y8.89
X101.6Y72.39
X102.87Y68.58
X102.87Y60.96
X102.87Y55.88
X102.87Y48.26
X102.87Y43.18
X102.87Y35.56
X102.87Y29.21
X102.87Y21.59
X102.87Y16.51
X102.87Y8.89
X104.1Y72.39
X105.41Y68.58
X105.41Y60.96
X105.41Y55.88
X105.41Y48.26
X105.41Y43.18
X105.41Y35.56
X105.41Y29.21
X105.41Y21.59
X105.41Y16.51
X105.41Y8.89
X107.95Y55.88
X107.95Y48.26
X107.95Y43.18
X107.95Y35.56
X107.95Y29.21
X107.95Y21.59
X107.95Y16.51
X107.95Y8.89
T3
X30.48Y30.099
X30.48Y4.699
X30.48Y2.159
X33.02Y30.099
X34.29Y39.37
X35.56Y30.099
X36.83Y39.37
X38.1Y30.099
X39.37Y39.37
X40.64Y30.099
X41.91Y39.37
X43.18Y30.099
X44.45Y39.37
X45.72Y30.099
X46.99Y39.37
X48.26Y30.099
X50.8Y30.099
X50.8Y4.699
X50.8Y2.159
X81.94Y2.59
X84.48Y2.59
X87.02Y2.59
T4
X5.0Y5.0
X57.0Y5.0
X110.0Y5.0
T0
M30
