G04 #@! TF.GenerationSoftware,KiCad,Pcbnew,(5.1.9)-1*
G04 #@! TF.CreationDate,2024-07-19T16:57:07+09:00*
G04 #@! TF.ProjectId,MZ-1500_SD,4d5a2d31-3530-4305-9f53-442e6b696361,rev?*
G04 #@! TF.SameCoordinates,PX4395450PY98005a8*
G04 #@! TF.FileFunction,Legend,Top*
G04 #@! TF.FilePolarity,Positive*
%FSLAX46Y46*%
G04 Gerber Fmt 4.6, Leading zero omitted, Abs format (unit mm)*
G04 Created by KiCad (PCBNEW (5.1.9)-1) date 2024-07-19 16:57:07*
%MOMM*%
%LPD*%
G01*
G04 APERTURE LIST*
%ADD10C,0.150000*%
%ADD11C,0.300000*%
%ADD12C,0.120000*%
G04 APERTURE END LIST*
D10*
X97210952Y6897620D02*
X97877619Y6897620D01*
X97449047Y5897620D01*
X98687142Y6564286D02*
X98687142Y5897620D01*
X98449047Y6945239D02*
X98210952Y6230953D01*
X98830000Y6230953D01*
X99687142Y5897620D02*
X99210952Y5897620D01*
X99210952Y6897620D01*
X99972857Y5945239D02*
X100115714Y5897620D01*
X100353809Y5897620D01*
X100449047Y5945239D01*
X100496666Y5992858D01*
X100544285Y6088096D01*
X100544285Y6183334D01*
X100496666Y6278572D01*
X100449047Y6326191D01*
X100353809Y6373810D01*
X100163333Y6421429D01*
X100068095Y6469048D01*
X100020476Y6516667D01*
X99972857Y6611905D01*
X99972857Y6707143D01*
X100020476Y6802381D01*
X100068095Y6850000D01*
X100163333Y6897620D01*
X100401428Y6897620D01*
X100544285Y6850000D01*
X101496666Y5897620D02*
X100925238Y5897620D01*
X101210952Y5897620D02*
X101210952Y6897620D01*
X101115714Y6754762D01*
X101020476Y6659524D01*
X100925238Y6611905D01*
X101972857Y5897620D02*
X102163333Y5897620D01*
X102258571Y5945239D01*
X102306190Y5992858D01*
X102401428Y6135715D01*
X102449047Y6326191D01*
X102449047Y6707143D01*
X102401428Y6802381D01*
X102353809Y6850000D01*
X102258571Y6897620D01*
X102068095Y6897620D01*
X101972857Y6850000D01*
X101925238Y6802381D01*
X101877619Y6707143D01*
X101877619Y6469048D01*
X101925238Y6373810D01*
X101972857Y6326191D01*
X102068095Y6278572D01*
X102258571Y6278572D01*
X102353809Y6326191D01*
X102401428Y6373810D01*
X102449047Y6469048D01*
X102782380Y6897620D02*
X103401428Y6897620D01*
X103068095Y6516667D01*
X103210952Y6516667D01*
X103306190Y6469048D01*
X103353809Y6421429D01*
X103401428Y6326191D01*
X103401428Y6088096D01*
X103353809Y5992858D01*
X103306190Y5945239D01*
X103210952Y5897620D01*
X102925238Y5897620D01*
X102830000Y5945239D01*
X102782380Y5992858D01*
X104830952Y19597620D02*
X105497619Y19597620D01*
X105069047Y18597620D01*
X106307142Y19264286D02*
X106307142Y18597620D01*
X106069047Y19645239D02*
X105830952Y18930953D01*
X106450000Y18930953D01*
X107307142Y18597620D02*
X106830952Y18597620D01*
X106830952Y19597620D01*
X107592857Y18645239D02*
X107735714Y18597620D01*
X107973809Y18597620D01*
X108069047Y18645239D01*
X108116666Y18692858D01*
X108164285Y18788096D01*
X108164285Y18883334D01*
X108116666Y18978572D01*
X108069047Y19026191D01*
X107973809Y19073810D01*
X107783333Y19121429D01*
X107688095Y19169048D01*
X107640476Y19216667D01*
X107592857Y19311905D01*
X107592857Y19407143D01*
X107640476Y19502381D01*
X107688095Y19550000D01*
X107783333Y19597620D01*
X108021428Y19597620D01*
X108164285Y19550000D01*
X109116666Y18597620D02*
X108545238Y18597620D01*
X108830952Y18597620D02*
X108830952Y19597620D01*
X108735714Y19454762D01*
X108640476Y19359524D01*
X108545238Y19311905D01*
X109592857Y18597620D02*
X109783333Y18597620D01*
X109878571Y18645239D01*
X109926190Y18692858D01*
X110021428Y18835715D01*
X110069047Y19026191D01*
X110069047Y19407143D01*
X110021428Y19502381D01*
X109973809Y19550000D01*
X109878571Y19597620D01*
X109688095Y19597620D01*
X109592857Y19550000D01*
X109545238Y19502381D01*
X109497619Y19407143D01*
X109497619Y19169048D01*
X109545238Y19073810D01*
X109592857Y19026191D01*
X109688095Y18978572D01*
X109878571Y18978572D01*
X109973809Y19026191D01*
X110021428Y19073810D01*
X110069047Y19169048D01*
X110402380Y19597620D02*
X111021428Y19597620D01*
X110688095Y19216667D01*
X110830952Y19216667D01*
X110926190Y19169048D01*
X110973809Y19121429D01*
X111021428Y19026191D01*
X111021428Y18788096D01*
X110973809Y18692858D01*
X110926190Y18645239D01*
X110830952Y18597620D01*
X110545238Y18597620D01*
X110450000Y18645239D01*
X110402380Y18692858D01*
X106100952Y33567620D02*
X106767619Y33567620D01*
X106339047Y32567620D01*
X107577142Y33234286D02*
X107577142Y32567620D01*
X107339047Y33615239D02*
X107100952Y32900953D01*
X107720000Y32900953D01*
X108577142Y32567620D02*
X108100952Y32567620D01*
X108100952Y33567620D01*
X108862857Y32615239D02*
X109005714Y32567620D01*
X109243809Y32567620D01*
X109339047Y32615239D01*
X109386666Y32662858D01*
X109434285Y32758096D01*
X109434285Y32853334D01*
X109386666Y32948572D01*
X109339047Y32996191D01*
X109243809Y33043810D01*
X109053333Y33091429D01*
X108958095Y33139048D01*
X108910476Y33186667D01*
X108862857Y33281905D01*
X108862857Y33377143D01*
X108910476Y33472381D01*
X108958095Y33520000D01*
X109053333Y33567620D01*
X109291428Y33567620D01*
X109434285Y33520000D01*
X110386666Y32567620D02*
X109815238Y32567620D01*
X110100952Y32567620D02*
X110100952Y33567620D01*
X110005714Y33424762D01*
X109910476Y33329524D01*
X109815238Y33281905D01*
X110862857Y32567620D02*
X111053333Y32567620D01*
X111148571Y32615239D01*
X111196190Y32662858D01*
X111291428Y32805715D01*
X111339047Y32996191D01*
X111339047Y33377143D01*
X111291428Y33472381D01*
X111243809Y33520000D01*
X111148571Y33567620D01*
X110958095Y33567620D01*
X110862857Y33520000D01*
X110815238Y33472381D01*
X110767619Y33377143D01*
X110767619Y33139048D01*
X110815238Y33043810D01*
X110862857Y32996191D01*
X110958095Y32948572D01*
X111148571Y32948572D01*
X111243809Y32996191D01*
X111291428Y33043810D01*
X111339047Y33139048D01*
X111672380Y33567620D02*
X112291428Y33567620D01*
X111958095Y33186667D01*
X112100952Y33186667D01*
X112196190Y33139048D01*
X112243809Y33091429D01*
X112291428Y32996191D01*
X112291428Y32758096D01*
X112243809Y32662858D01*
X112196190Y32615239D01*
X112100952Y32567620D01*
X111815238Y32567620D01*
X111720000Y32615239D01*
X111672380Y32662858D01*
X106100952Y46267620D02*
X106767619Y46267620D01*
X106339047Y45267620D01*
X107577142Y45934286D02*
X107577142Y45267620D01*
X107339047Y46315239D02*
X107100952Y45600953D01*
X107720000Y45600953D01*
X108577142Y45267620D02*
X108100952Y45267620D01*
X108100952Y46267620D01*
X108862857Y45315239D02*
X109005714Y45267620D01*
X109243809Y45267620D01*
X109339047Y45315239D01*
X109386666Y45362858D01*
X109434285Y45458096D01*
X109434285Y45553334D01*
X109386666Y45648572D01*
X109339047Y45696191D01*
X109243809Y45743810D01*
X109053333Y45791429D01*
X108958095Y45839048D01*
X108910476Y45886667D01*
X108862857Y45981905D01*
X108862857Y46077143D01*
X108910476Y46172381D01*
X108958095Y46220000D01*
X109053333Y46267620D01*
X109291428Y46267620D01*
X109434285Y46220000D01*
X110386666Y45267620D02*
X109815238Y45267620D01*
X110100952Y45267620D02*
X110100952Y46267620D01*
X110005714Y46124762D01*
X109910476Y46029524D01*
X109815238Y45981905D01*
X110862857Y45267620D02*
X111053333Y45267620D01*
X111148571Y45315239D01*
X111196190Y45362858D01*
X111291428Y45505715D01*
X111339047Y45696191D01*
X111339047Y46077143D01*
X111291428Y46172381D01*
X111243809Y46220000D01*
X111148571Y46267620D01*
X110958095Y46267620D01*
X110862857Y46220000D01*
X110815238Y46172381D01*
X110767619Y46077143D01*
X110767619Y45839048D01*
X110815238Y45743810D01*
X110862857Y45696191D01*
X110958095Y45648572D01*
X111148571Y45648572D01*
X111243809Y45696191D01*
X111291428Y45743810D01*
X111339047Y45839048D01*
X111672380Y46267620D02*
X112291428Y46267620D01*
X111958095Y45886667D01*
X112100952Y45886667D01*
X112196190Y45839048D01*
X112243809Y45791429D01*
X112291428Y45696191D01*
X112291428Y45458096D01*
X112243809Y45362858D01*
X112196190Y45315239D01*
X112100952Y45267620D01*
X111815238Y45267620D01*
X111720000Y45315239D01*
X111672380Y45362858D01*
X107847142Y62777620D02*
X108513809Y62777620D01*
X108085238Y61777620D01*
X109323333Y62444286D02*
X109323333Y61777620D01*
X109085238Y62825239D02*
X108847142Y62110953D01*
X109466190Y62110953D01*
X110323333Y61777620D02*
X109847142Y61777620D01*
X109847142Y62777620D01*
X110609047Y61825239D02*
X110751904Y61777620D01*
X110990000Y61777620D01*
X111085238Y61825239D01*
X111132857Y61872858D01*
X111180476Y61968096D01*
X111180476Y62063334D01*
X111132857Y62158572D01*
X111085238Y62206191D01*
X110990000Y62253810D01*
X110799523Y62301429D01*
X110704285Y62349048D01*
X110656666Y62396667D01*
X110609047Y62491905D01*
X110609047Y62587143D01*
X110656666Y62682381D01*
X110704285Y62730000D01*
X110799523Y62777620D01*
X111037619Y62777620D01*
X111180476Y62730000D01*
X112132857Y61777620D02*
X111561428Y61777620D01*
X111847142Y61777620D02*
X111847142Y62777620D01*
X111751904Y62634762D01*
X111656666Y62539524D01*
X111561428Y62491905D01*
X112990000Y62444286D02*
X112990000Y61777620D01*
X112751904Y62825239D02*
X112513809Y62110953D01*
X113132857Y62110953D01*
X84717142Y61507620D02*
X84812380Y61507620D01*
X84907619Y61460000D01*
X84955238Y61412381D01*
X85002857Y61317143D01*
X85050476Y61126667D01*
X85050476Y60888572D01*
X85002857Y60698096D01*
X84955238Y60602858D01*
X84907619Y60555239D01*
X84812380Y60507620D01*
X84717142Y60507620D01*
X84621904Y60555239D01*
X84574285Y60602858D01*
X84526666Y60698096D01*
X84479047Y60888572D01*
X84479047Y61126667D01*
X84526666Y61317143D01*
X84574285Y61412381D01*
X84621904Y61460000D01*
X84717142Y61507620D01*
X85479047Y60602858D02*
X85526666Y60555239D01*
X85479047Y60507620D01*
X85431428Y60555239D01*
X85479047Y60602858D01*
X85479047Y60507620D01*
X86479047Y60507620D02*
X85907619Y60507620D01*
X86193333Y60507620D02*
X86193333Y61507620D01*
X86098095Y61364762D01*
X86002857Y61269524D01*
X85907619Y61221905D01*
X87336190Y61174286D02*
X87336190Y60507620D01*
X86907619Y61174286D02*
X86907619Y60650477D01*
X86955238Y60555239D01*
X87050476Y60507620D01*
X87193333Y60507620D01*
X87288571Y60555239D01*
X87336190Y60602858D01*
X88145714Y61031429D02*
X87812380Y61031429D01*
X87812380Y60507620D02*
X87812380Y61507620D01*
X88288571Y61507620D01*
X84717142Y47537620D02*
X84812380Y47537620D01*
X84907619Y47490000D01*
X84955238Y47442381D01*
X85002857Y47347143D01*
X85050476Y47156667D01*
X85050476Y46918572D01*
X85002857Y46728096D01*
X84955238Y46632858D01*
X84907619Y46585239D01*
X84812380Y46537620D01*
X84717142Y46537620D01*
X84621904Y46585239D01*
X84574285Y46632858D01*
X84526666Y46728096D01*
X84479047Y46918572D01*
X84479047Y47156667D01*
X84526666Y47347143D01*
X84574285Y47442381D01*
X84621904Y47490000D01*
X84717142Y47537620D01*
X85479047Y46632858D02*
X85526666Y46585239D01*
X85479047Y46537620D01*
X85431428Y46585239D01*
X85479047Y46632858D01*
X85479047Y46537620D01*
X86479047Y46537620D02*
X85907619Y46537620D01*
X86193333Y46537620D02*
X86193333Y47537620D01*
X86098095Y47394762D01*
X86002857Y47299524D01*
X85907619Y47251905D01*
X87336190Y47204286D02*
X87336190Y46537620D01*
X86907619Y47204286D02*
X86907619Y46680477D01*
X86955238Y46585239D01*
X87050476Y46537620D01*
X87193333Y46537620D01*
X87288571Y46585239D01*
X87336190Y46632858D01*
X88145714Y47061429D02*
X87812380Y47061429D01*
X87812380Y46537620D02*
X87812380Y47537620D01*
X88288571Y47537620D01*
X84717142Y36107620D02*
X84812380Y36107620D01*
X84907619Y36060000D01*
X84955238Y36012381D01*
X85002857Y35917143D01*
X85050476Y35726667D01*
X85050476Y35488572D01*
X85002857Y35298096D01*
X84955238Y35202858D01*
X84907619Y35155239D01*
X84812380Y35107620D01*
X84717142Y35107620D01*
X84621904Y35155239D01*
X84574285Y35202858D01*
X84526666Y35298096D01*
X84479047Y35488572D01*
X84479047Y35726667D01*
X84526666Y35917143D01*
X84574285Y36012381D01*
X84621904Y36060000D01*
X84717142Y36107620D01*
X85479047Y35202858D02*
X85526666Y35155239D01*
X85479047Y35107620D01*
X85431428Y35155239D01*
X85479047Y35202858D01*
X85479047Y35107620D01*
X86479047Y35107620D02*
X85907619Y35107620D01*
X86193333Y35107620D02*
X86193333Y36107620D01*
X86098095Y35964762D01*
X86002857Y35869524D01*
X85907619Y35821905D01*
X87336190Y35774286D02*
X87336190Y35107620D01*
X86907619Y35774286D02*
X86907619Y35250477D01*
X86955238Y35155239D01*
X87050476Y35107620D01*
X87193333Y35107620D01*
X87288571Y35155239D01*
X87336190Y35202858D01*
X88145714Y35631429D02*
X87812380Y35631429D01*
X87812380Y35107620D02*
X87812380Y36107620D01*
X88288571Y36107620D01*
X84717142Y22137620D02*
X84812380Y22137620D01*
X84907619Y22090000D01*
X84955238Y22042381D01*
X85002857Y21947143D01*
X85050476Y21756667D01*
X85050476Y21518572D01*
X85002857Y21328096D01*
X84955238Y21232858D01*
X84907619Y21185239D01*
X84812380Y21137620D01*
X84717142Y21137620D01*
X84621904Y21185239D01*
X84574285Y21232858D01*
X84526666Y21328096D01*
X84479047Y21518572D01*
X84479047Y21756667D01*
X84526666Y21947143D01*
X84574285Y22042381D01*
X84621904Y22090000D01*
X84717142Y22137620D01*
X85479047Y21232858D02*
X85526666Y21185239D01*
X85479047Y21137620D01*
X85431428Y21185239D01*
X85479047Y21232858D01*
X85479047Y21137620D01*
X86479047Y21137620D02*
X85907619Y21137620D01*
X86193333Y21137620D02*
X86193333Y22137620D01*
X86098095Y21994762D01*
X86002857Y21899524D01*
X85907619Y21851905D01*
X87336190Y21804286D02*
X87336190Y21137620D01*
X86907619Y21804286D02*
X86907619Y21280477D01*
X86955238Y21185239D01*
X87050476Y21137620D01*
X87193333Y21137620D01*
X87288571Y21185239D01*
X87336190Y21232858D01*
X88145714Y21661429D02*
X87812380Y21661429D01*
X87812380Y21137620D02*
X87812380Y22137620D01*
X88288571Y22137620D01*
X84717142Y9437620D02*
X84812380Y9437620D01*
X84907619Y9390000D01*
X84955238Y9342381D01*
X85002857Y9247143D01*
X85050476Y9056667D01*
X85050476Y8818572D01*
X85002857Y8628096D01*
X84955238Y8532858D01*
X84907619Y8485239D01*
X84812380Y8437620D01*
X84717142Y8437620D01*
X84621904Y8485239D01*
X84574285Y8532858D01*
X84526666Y8628096D01*
X84479047Y8818572D01*
X84479047Y9056667D01*
X84526666Y9247143D01*
X84574285Y9342381D01*
X84621904Y9390000D01*
X84717142Y9437620D01*
X85479047Y8532858D02*
X85526666Y8485239D01*
X85479047Y8437620D01*
X85431428Y8485239D01*
X85479047Y8532858D01*
X85479047Y8437620D01*
X86479047Y8437620D02*
X85907619Y8437620D01*
X86193333Y8437620D02*
X86193333Y9437620D01*
X86098095Y9294762D01*
X86002857Y9199524D01*
X85907619Y9151905D01*
X87336190Y9104286D02*
X87336190Y8437620D01*
X86907619Y9104286D02*
X86907619Y8580477D01*
X86955238Y8485239D01*
X87050476Y8437620D01*
X87193333Y8437620D01*
X87288571Y8485239D01*
X87336190Y8532858D01*
X88145714Y8961429D02*
X87812380Y8961429D01*
X87812380Y8437620D02*
X87812380Y9437620D01*
X88288571Y9437620D01*
X105830952Y72842381D02*
X105878571Y72890000D01*
X105973809Y72937620D01*
X106211904Y72937620D01*
X106307142Y72890000D01*
X106354761Y72842381D01*
X106402380Y72747143D01*
X106402380Y72651905D01*
X106354761Y72509048D01*
X105783333Y71937620D01*
X106402380Y71937620D01*
X106783333Y72842381D02*
X106830952Y72890000D01*
X106926190Y72937620D01*
X107164285Y72937620D01*
X107259523Y72890000D01*
X107307142Y72842381D01*
X107354761Y72747143D01*
X107354761Y72651905D01*
X107307142Y72509048D01*
X106735714Y71937620D01*
X107354761Y71937620D01*
X107973809Y72937620D02*
X108069047Y72937620D01*
X108164285Y72890000D01*
X108211904Y72842381D01*
X108259523Y72747143D01*
X108307142Y72556667D01*
X108307142Y72318572D01*
X108259523Y72128096D01*
X108211904Y72032858D01*
X108164285Y71985239D01*
X108069047Y71937620D01*
X107973809Y71937620D01*
X107878571Y71985239D01*
X107830952Y72032858D01*
X107783333Y72128096D01*
X107735714Y72318572D01*
X107735714Y72556667D01*
X107783333Y72747143D01*
X107830952Y72842381D01*
X107878571Y72890000D01*
X107973809Y72937620D01*
X108735714Y72604286D02*
X108735714Y71604286D01*
X108735714Y72556667D02*
X108830952Y72604286D01*
X109021428Y72604286D01*
X109116666Y72556667D01*
X109164285Y72509048D01*
X109211904Y72413810D01*
X109211904Y72128096D01*
X109164285Y72032858D01*
X109116666Y71985239D01*
X109021428Y71937620D01*
X108830952Y71937620D01*
X108735714Y71985239D01*
X109973809Y72461429D02*
X109640476Y72461429D01*
X109640476Y71937620D02*
X109640476Y72937620D01*
X110116666Y72937620D01*
X94583333Y74477620D02*
X94011904Y74477620D01*
X94297619Y74477620D02*
X94297619Y75477620D01*
X94202380Y75334762D01*
X94107142Y75239524D01*
X94011904Y75191905D01*
X95202380Y75477620D02*
X95297619Y75477620D01*
X95392857Y75430000D01*
X95440476Y75382381D01*
X95488095Y75287143D01*
X95535714Y75096667D01*
X95535714Y74858572D01*
X95488095Y74668096D01*
X95440476Y74572858D01*
X95392857Y74525239D01*
X95297619Y74477620D01*
X95202380Y74477620D01*
X95107142Y74525239D01*
X95059523Y74572858D01*
X95011904Y74668096D01*
X94964285Y74858572D01*
X94964285Y75096667D01*
X95011904Y75287143D01*
X95059523Y75382381D01*
X95107142Y75430000D01*
X95202380Y75477620D01*
X96154761Y75477620D02*
X96250000Y75477620D01*
X96345238Y75430000D01*
X96392857Y75382381D01*
X96440476Y75287143D01*
X96488095Y75096667D01*
X96488095Y74858572D01*
X96440476Y74668096D01*
X96392857Y74572858D01*
X96345238Y74525239D01*
X96250000Y74477620D01*
X96154761Y74477620D01*
X96059523Y74525239D01*
X96011904Y74572858D01*
X95964285Y74668096D01*
X95916666Y74858572D01*
X95916666Y75096667D01*
X95964285Y75287143D01*
X96011904Y75382381D01*
X96059523Y75430000D01*
X96154761Y75477620D01*
X36148095Y41457620D02*
X36148095Y42124286D01*
X36148095Y42029048D02*
X36195714Y42076667D01*
X36290952Y42124286D01*
X36433809Y42124286D01*
X36529047Y42076667D01*
X36576666Y41981429D01*
X36576666Y41457620D01*
X36576666Y41981429D02*
X36624285Y42076667D01*
X36719523Y42124286D01*
X36862380Y42124286D01*
X36957619Y42076667D01*
X37005238Y41981429D01*
X37005238Y41457620D01*
X37481428Y41457620D02*
X37481428Y42124286D01*
X37481428Y42457620D02*
X37433809Y42410000D01*
X37481428Y42362381D01*
X37529047Y42410000D01*
X37481428Y42457620D01*
X37481428Y42362381D01*
X38386190Y41505239D02*
X38290952Y41457620D01*
X38100476Y41457620D01*
X38005238Y41505239D01*
X37957619Y41552858D01*
X37910000Y41648096D01*
X37910000Y41933810D01*
X37957619Y42029048D01*
X38005238Y42076667D01*
X38100476Y42124286D01*
X38290952Y42124286D01*
X38386190Y42076667D01*
X38814761Y41457620D02*
X38814761Y42124286D01*
X38814761Y41933810D02*
X38862380Y42029048D01*
X38910000Y42076667D01*
X39005238Y42124286D01*
X39100476Y42124286D01*
X39576666Y41457620D02*
X39481428Y41505239D01*
X39433809Y41552858D01*
X39386190Y41648096D01*
X39386190Y41933810D01*
X39433809Y42029048D01*
X39481428Y42076667D01*
X39576666Y42124286D01*
X39719523Y42124286D01*
X39814761Y42076667D01*
X39862380Y42029048D01*
X39910000Y41933810D01*
X39910000Y41648096D01*
X39862380Y41552858D01*
X39814761Y41505239D01*
X39719523Y41457620D01*
X39576666Y41457620D01*
X41052857Y41505239D02*
X41195714Y41457620D01*
X41433809Y41457620D01*
X41529047Y41505239D01*
X41576666Y41552858D01*
X41624285Y41648096D01*
X41624285Y41743334D01*
X41576666Y41838572D01*
X41529047Y41886191D01*
X41433809Y41933810D01*
X41243333Y41981429D01*
X41148095Y42029048D01*
X41100476Y42076667D01*
X41052857Y42171905D01*
X41052857Y42267143D01*
X41100476Y42362381D01*
X41148095Y42410000D01*
X41243333Y42457620D01*
X41481428Y42457620D01*
X41624285Y42410000D01*
X42052857Y41457620D02*
X42052857Y42457620D01*
X42290952Y42457620D01*
X42433809Y42410000D01*
X42529047Y42314762D01*
X42576666Y42219524D01*
X42624285Y42029048D01*
X42624285Y41886191D01*
X42576666Y41695715D01*
X42529047Y41600477D01*
X42433809Y41505239D01*
X42290952Y41457620D01*
X42052857Y41457620D01*
X43052857Y41838572D02*
X43814761Y41838572D01*
X44862380Y41552858D02*
X44814761Y41505239D01*
X44671904Y41457620D01*
X44576666Y41457620D01*
X44433809Y41505239D01*
X44338571Y41600477D01*
X44290952Y41695715D01*
X44243333Y41886191D01*
X44243333Y42029048D01*
X44290952Y42219524D01*
X44338571Y42314762D01*
X44433809Y42410000D01*
X44576666Y42457620D01*
X44671904Y42457620D01*
X44814761Y42410000D01*
X44862380Y42362381D01*
X45243333Y41743334D02*
X45719523Y41743334D01*
X45148095Y41457620D02*
X45481428Y42457620D01*
X45814761Y41457620D01*
X46719523Y41457620D02*
X46386190Y41933810D01*
X46148095Y41457620D02*
X46148095Y42457620D01*
X46529047Y42457620D01*
X46624285Y42410000D01*
X46671904Y42362381D01*
X46719523Y42267143D01*
X46719523Y42124286D01*
X46671904Y42029048D01*
X46624285Y41981429D01*
X46529047Y41933810D01*
X46148095Y41933810D01*
X47148095Y41457620D02*
X47148095Y42457620D01*
X47386190Y42457620D01*
X47529047Y42410000D01*
X47624285Y42314762D01*
X47671904Y42219524D01*
X47719523Y42029048D01*
X47719523Y41886191D01*
X47671904Y41695715D01*
X47624285Y41600477D01*
X47529047Y41505239D01*
X47386190Y41457620D01*
X47148095Y41457620D01*
X10375238Y41743334D02*
X10851428Y41743334D01*
X10280000Y41457620D02*
X10613333Y42457620D01*
X10946666Y41457620D01*
X11280000Y41457620D02*
X11280000Y42124286D01*
X11280000Y41933810D02*
X11327619Y42029048D01*
X11375238Y42076667D01*
X11470476Y42124286D01*
X11565714Y42124286D01*
X12327619Y41457620D02*
X12327619Y42457620D01*
X12327619Y41505239D02*
X12232380Y41457620D01*
X12041904Y41457620D01*
X11946666Y41505239D01*
X11899047Y41552858D01*
X11851428Y41648096D01*
X11851428Y41933810D01*
X11899047Y42029048D01*
X11946666Y42076667D01*
X12041904Y42124286D01*
X12232380Y42124286D01*
X12327619Y42076667D01*
X13232380Y42124286D02*
X13232380Y41457620D01*
X12803809Y42124286D02*
X12803809Y41600477D01*
X12851428Y41505239D01*
X12946666Y41457620D01*
X13089523Y41457620D01*
X13184761Y41505239D01*
X13232380Y41552858D01*
X13708571Y41457620D02*
X13708571Y42124286D01*
X13708571Y42457620D02*
X13660952Y42410000D01*
X13708571Y42362381D01*
X13756190Y42410000D01*
X13708571Y42457620D01*
X13708571Y42362381D01*
X14184761Y42124286D02*
X14184761Y41457620D01*
X14184761Y42029048D02*
X14232380Y42076667D01*
X14327619Y42124286D01*
X14470476Y42124286D01*
X14565714Y42076667D01*
X14613333Y41981429D01*
X14613333Y41457620D01*
X15232380Y41457620D02*
X15137142Y41505239D01*
X15089523Y41552858D01*
X15041904Y41648096D01*
X15041904Y41933810D01*
X15089523Y42029048D01*
X15137142Y42076667D01*
X15232380Y42124286D01*
X15375238Y42124286D01*
X15470476Y42076667D01*
X15518095Y42029048D01*
X15565714Y41933810D01*
X15565714Y41648096D01*
X15518095Y41552858D01*
X15470476Y41505239D01*
X15375238Y41457620D01*
X15232380Y41457620D01*
X16756190Y41457620D02*
X16756190Y42457620D01*
X17137142Y42457620D01*
X17232380Y42410000D01*
X17280000Y42362381D01*
X17327619Y42267143D01*
X17327619Y42124286D01*
X17280000Y42029048D01*
X17232380Y41981429D01*
X17137142Y41933810D01*
X16756190Y41933810D01*
X17756190Y41457620D02*
X17756190Y42124286D01*
X17756190Y41933810D02*
X17803809Y42029048D01*
X17851428Y42076667D01*
X17946666Y42124286D01*
X18041904Y42124286D01*
X18518095Y41457620D02*
X18422857Y41505239D01*
X18375238Y41552858D01*
X18327619Y41648096D01*
X18327619Y41933810D01*
X18375238Y42029048D01*
X18422857Y42076667D01*
X18518095Y42124286D01*
X18660952Y42124286D01*
X18756190Y42076667D01*
X18803809Y42029048D01*
X18851428Y41933810D01*
X18851428Y41648096D01*
X18803809Y41552858D01*
X18756190Y41505239D01*
X18660952Y41457620D01*
X18518095Y41457620D01*
X20041904Y41457620D02*
X20041904Y42457620D01*
X20375238Y41743334D01*
X20708571Y42457620D01*
X20708571Y41457620D01*
X21184761Y41457620D02*
X21184761Y42124286D01*
X21184761Y42457620D02*
X21137142Y42410000D01*
X21184761Y42362381D01*
X21232380Y42410000D01*
X21184761Y42457620D01*
X21184761Y42362381D01*
X21660952Y42124286D02*
X21660952Y41457620D01*
X21660952Y42029048D02*
X21708571Y42076667D01*
X21803809Y42124286D01*
X21946666Y42124286D01*
X22041904Y42076667D01*
X22089523Y41981429D01*
X22089523Y41457620D01*
X22565714Y41457620D02*
X22565714Y42124286D01*
X22565714Y42457620D02*
X22518095Y42410000D01*
X22565714Y42362381D01*
X22613333Y42410000D01*
X22565714Y42457620D01*
X22565714Y42362381D01*
X24280000Y42457620D02*
X23803809Y42457620D01*
X23756190Y41981429D01*
X23803809Y42029048D01*
X23899047Y42076667D01*
X24137142Y42076667D01*
X24232380Y42029048D01*
X24280000Y41981429D01*
X24327619Y41886191D01*
X24327619Y41648096D01*
X24280000Y41552858D01*
X24232380Y41505239D01*
X24137142Y41457620D01*
X23899047Y41457620D01*
X23803809Y41505239D01*
X23756190Y41552858D01*
X24613333Y42457620D02*
X24946666Y41457620D01*
X25280000Y42457620D01*
X88971428Y2611429D02*
X89114285Y2563810D01*
X89161904Y2516191D01*
X89209523Y2420953D01*
X89209523Y2278096D01*
X89161904Y2182858D01*
X89114285Y2135239D01*
X89019047Y2087620D01*
X88638095Y2087620D01*
X88638095Y3087620D01*
X88971428Y3087620D01*
X89066666Y3040000D01*
X89114285Y2992381D01*
X89161904Y2897143D01*
X89161904Y2801905D01*
X89114285Y2706667D01*
X89066666Y2659048D01*
X88971428Y2611429D01*
X88638095Y2611429D01*
X79771904Y2373334D02*
X80248095Y2373334D01*
X79676666Y2087620D02*
X80010000Y3087620D01*
X80343333Y2087620D01*
X81732380Y31495239D02*
X81780000Y31447620D01*
X81827619Y31352381D01*
X81827619Y31114286D01*
X81780000Y31019048D01*
X81732380Y30971429D01*
X81637142Y30923810D01*
X81541904Y30923810D01*
X81399047Y30971429D01*
X80827619Y31542858D01*
X80827619Y30923810D01*
X80827619Y30447620D02*
X80827619Y30257143D01*
X80875238Y30161905D01*
X80922857Y30114286D01*
X81065714Y30019048D01*
X81256190Y29971429D01*
X81637142Y29971429D01*
X81732380Y30019048D01*
X81780000Y30066667D01*
X81827619Y30161905D01*
X81827619Y30352381D01*
X81780000Y30447620D01*
X81732380Y30495239D01*
X81637142Y30542858D01*
X81399047Y30542858D01*
X81303809Y30495239D01*
X81256190Y30447620D01*
X81208571Y30352381D01*
X81208571Y30161905D01*
X81256190Y30066667D01*
X81303809Y30019048D01*
X81399047Y29971429D01*
X80922857Y28971429D02*
X80875238Y29019048D01*
X80827619Y29161905D01*
X80827619Y29257143D01*
X80875238Y29400000D01*
X80970476Y29495239D01*
X81065714Y29542858D01*
X81256190Y29590477D01*
X81399047Y29590477D01*
X81589523Y29542858D01*
X81684761Y29495239D01*
X81780000Y29400000D01*
X81827619Y29257143D01*
X81827619Y29161905D01*
X81780000Y29019048D01*
X81732380Y28971429D01*
X81732380Y28590477D02*
X81780000Y28542858D01*
X81827619Y28447620D01*
X81827619Y28209524D01*
X81780000Y28114286D01*
X81732380Y28066667D01*
X81637142Y28019048D01*
X81541904Y28019048D01*
X81399047Y28066667D01*
X80827619Y28638096D01*
X80827619Y28019048D01*
X81827619Y27114286D02*
X81827619Y27590477D01*
X81351428Y27638096D01*
X81399047Y27590477D01*
X81446666Y27495239D01*
X81446666Y27257143D01*
X81399047Y27161905D01*
X81351428Y27114286D01*
X81256190Y27066667D01*
X81018095Y27066667D01*
X80922857Y27114286D01*
X80875238Y27161905D01*
X80827619Y27257143D01*
X80827619Y27495239D01*
X80875238Y27590477D01*
X80922857Y27638096D01*
X81827619Y26209524D02*
X81827619Y26400000D01*
X81780000Y26495239D01*
X81732380Y26542858D01*
X81589523Y26638096D01*
X81399047Y26685715D01*
X81018095Y26685715D01*
X80922857Y26638096D01*
X80875238Y26590477D01*
X80827619Y26495239D01*
X80827619Y26304762D01*
X80875238Y26209524D01*
X80922857Y26161905D01*
X81018095Y26114286D01*
X81256190Y26114286D01*
X81351428Y26161905D01*
X81399047Y26209524D01*
X81446666Y26304762D01*
X81446666Y26495239D01*
X81399047Y26590477D01*
X81351428Y26638096D01*
X81256190Y26685715D01*
X81875238Y24971429D02*
X80589523Y25828572D01*
X81732380Y24685715D02*
X81780000Y24638096D01*
X81827619Y24542858D01*
X81827619Y24304762D01*
X81780000Y24209524D01*
X81732380Y24161905D01*
X81637142Y24114286D01*
X81541904Y24114286D01*
X81399047Y24161905D01*
X80827619Y24733334D01*
X80827619Y24114286D01*
X81827619Y23780953D02*
X81827619Y23114286D01*
X80827619Y23542858D01*
X80922857Y22161905D02*
X80875238Y22209524D01*
X80827619Y22352381D01*
X80827619Y22447620D01*
X80875238Y22590477D01*
X80970476Y22685715D01*
X81065714Y22733334D01*
X81256190Y22780953D01*
X81399047Y22780953D01*
X81589523Y22733334D01*
X81684761Y22685715D01*
X81780000Y22590477D01*
X81827619Y22447620D01*
X81827619Y22352381D01*
X81780000Y22209524D01*
X81732380Y22161905D01*
X81827619Y21257143D02*
X81827619Y21733334D01*
X81351428Y21780953D01*
X81399047Y21733334D01*
X81446666Y21638096D01*
X81446666Y21400000D01*
X81399047Y21304762D01*
X81351428Y21257143D01*
X81256190Y21209524D01*
X81018095Y21209524D01*
X80922857Y21257143D01*
X80875238Y21304762D01*
X80827619Y21400000D01*
X80827619Y21638096D01*
X80875238Y21733334D01*
X80922857Y21780953D01*
X80827619Y20257143D02*
X80827619Y20828572D01*
X80827619Y20542858D02*
X81827619Y20542858D01*
X81684761Y20638096D01*
X81589523Y20733334D01*
X81541904Y20828572D01*
X81732380Y19876191D02*
X81780000Y19828572D01*
X81827619Y19733334D01*
X81827619Y19495239D01*
X81780000Y19400000D01*
X81732380Y19352381D01*
X81637142Y19304762D01*
X81541904Y19304762D01*
X81399047Y19352381D01*
X80827619Y19923810D01*
X80827619Y19304762D01*
X28956190Y48379048D02*
X28860952Y48426667D01*
X28813333Y48474286D01*
X28765714Y48569524D01*
X28765714Y48617143D01*
X28813333Y48712381D01*
X28860952Y48760000D01*
X28956190Y48807620D01*
X29146666Y48807620D01*
X29241904Y48760000D01*
X29289523Y48712381D01*
X29337142Y48617143D01*
X29337142Y48569524D01*
X29289523Y48474286D01*
X29241904Y48426667D01*
X29146666Y48379048D01*
X28956190Y48379048D01*
X28860952Y48331429D01*
X28813333Y48283810D01*
X28765714Y48188572D01*
X28765714Y47998096D01*
X28813333Y47902858D01*
X28860952Y47855239D01*
X28956190Y47807620D01*
X29146666Y47807620D01*
X29241904Y47855239D01*
X29289523Y47902858D01*
X29337142Y47998096D01*
X29337142Y48188572D01*
X29289523Y48283810D01*
X29241904Y48331429D01*
X29146666Y48379048D01*
X29718095Y48712381D02*
X29765714Y48760000D01*
X29860952Y48807620D01*
X30099047Y48807620D01*
X30194285Y48760000D01*
X30241904Y48712381D01*
X30289523Y48617143D01*
X30289523Y48521905D01*
X30241904Y48379048D01*
X29670476Y47807620D01*
X30289523Y47807620D01*
X31194285Y48807620D02*
X30718095Y48807620D01*
X30670476Y48331429D01*
X30718095Y48379048D01*
X30813333Y48426667D01*
X31051428Y48426667D01*
X31146666Y48379048D01*
X31194285Y48331429D01*
X31241904Y48236191D01*
X31241904Y47998096D01*
X31194285Y47902858D01*
X31146666Y47855239D01*
X31051428Y47807620D01*
X30813333Y47807620D01*
X30718095Y47855239D01*
X30670476Y47902858D01*
X32146666Y48807620D02*
X31670476Y48807620D01*
X31622857Y48331429D01*
X31670476Y48379048D01*
X31765714Y48426667D01*
X32003809Y48426667D01*
X32099047Y48379048D01*
X32146666Y48331429D01*
X32194285Y48236191D01*
X32194285Y47998096D01*
X32146666Y47902858D01*
X32099047Y47855239D01*
X32003809Y47807620D01*
X31765714Y47807620D01*
X31670476Y47855239D01*
X31622857Y47902858D01*
X72937619Y61062858D02*
X72937619Y60396191D01*
X71937619Y60824762D01*
X72604285Y59586667D02*
X71937619Y59586667D01*
X72985238Y59824762D02*
X72270952Y60062858D01*
X72270952Y59443810D01*
X71937619Y58586667D02*
X71937619Y59062858D01*
X72937619Y59062858D01*
X71985238Y58300953D02*
X71937619Y58158096D01*
X71937619Y57920000D01*
X71985238Y57824762D01*
X72032857Y57777143D01*
X72128095Y57729524D01*
X72223333Y57729524D01*
X72318571Y57777143D01*
X72366190Y57824762D01*
X72413809Y57920000D01*
X72461428Y58110477D01*
X72509047Y58205715D01*
X72556666Y58253334D01*
X72651904Y58300953D01*
X72747142Y58300953D01*
X72842380Y58253334D01*
X72890000Y58205715D01*
X72937619Y58110477D01*
X72937619Y57872381D01*
X72890000Y57729524D01*
X71937619Y56777143D02*
X71937619Y57348572D01*
X71937619Y57062858D02*
X72937619Y57062858D01*
X72794761Y57158096D01*
X72699523Y57253334D01*
X72651904Y57348572D01*
X72937619Y56158096D02*
X72937619Y56062858D01*
X72890000Y55967620D01*
X72842380Y55920000D01*
X72747142Y55872381D01*
X72556666Y55824762D01*
X72318571Y55824762D01*
X72128095Y55872381D01*
X72032857Y55920000D01*
X71985238Y55967620D01*
X71937619Y56062858D01*
X71937619Y56158096D01*
X71985238Y56253334D01*
X72032857Y56300953D01*
X72128095Y56348572D01*
X72318571Y56396191D01*
X72556666Y56396191D01*
X72747142Y56348572D01*
X72842380Y56300953D01*
X72890000Y56253334D01*
X72937619Y56158096D01*
X75620952Y46267620D02*
X76287619Y46267620D01*
X75859047Y45267620D01*
X77097142Y45934286D02*
X77097142Y45267620D01*
X76859047Y46315239D02*
X76620952Y45600953D01*
X77240000Y45600953D01*
X78097142Y45267620D02*
X77620952Y45267620D01*
X77620952Y46267620D01*
X78382857Y45315239D02*
X78525714Y45267620D01*
X78763809Y45267620D01*
X78859047Y45315239D01*
X78906666Y45362858D01*
X78954285Y45458096D01*
X78954285Y45553334D01*
X78906666Y45648572D01*
X78859047Y45696191D01*
X78763809Y45743810D01*
X78573333Y45791429D01*
X78478095Y45839048D01*
X78430476Y45886667D01*
X78382857Y45981905D01*
X78382857Y46077143D01*
X78430476Y46172381D01*
X78478095Y46220000D01*
X78573333Y46267620D01*
X78811428Y46267620D01*
X78954285Y46220000D01*
X79335238Y46172381D02*
X79382857Y46220000D01*
X79478095Y46267620D01*
X79716190Y46267620D01*
X79811428Y46220000D01*
X79859047Y46172381D01*
X79906666Y46077143D01*
X79906666Y45981905D01*
X79859047Y45839048D01*
X79287619Y45267620D01*
X79906666Y45267620D01*
X80763809Y45934286D02*
X80763809Y45267620D01*
X80525714Y46315239D02*
X80287619Y45600953D01*
X80906666Y45600953D01*
X81763809Y46267620D02*
X81287619Y46267620D01*
X81240000Y45791429D01*
X81287619Y45839048D01*
X81382857Y45886667D01*
X81620952Y45886667D01*
X81716190Y45839048D01*
X81763809Y45791429D01*
X81811428Y45696191D01*
X81811428Y45458096D01*
X81763809Y45362858D01*
X81716190Y45315239D01*
X81620952Y45267620D01*
X81382857Y45267620D01*
X81287619Y45315239D01*
X81240000Y45362858D01*
X90067142Y78017620D02*
X90733809Y78017620D01*
X90305238Y77017620D01*
X91543333Y77684286D02*
X91543333Y77017620D01*
X91305238Y78065239D02*
X91067142Y77350953D01*
X91686190Y77350953D01*
X92543333Y77017620D02*
X92067142Y77017620D01*
X92067142Y78017620D01*
X92829047Y77065239D02*
X92971904Y77017620D01*
X93210000Y77017620D01*
X93305238Y77065239D01*
X93352857Y77112858D01*
X93400476Y77208096D01*
X93400476Y77303334D01*
X93352857Y77398572D01*
X93305238Y77446191D01*
X93210000Y77493810D01*
X93019523Y77541429D01*
X92924285Y77589048D01*
X92876666Y77636667D01*
X92829047Y77731905D01*
X92829047Y77827143D01*
X92876666Y77922381D01*
X92924285Y77970000D01*
X93019523Y78017620D01*
X93257619Y78017620D01*
X93400476Y77970000D01*
X93733809Y78017620D02*
X94352857Y78017620D01*
X94019523Y77636667D01*
X94162380Y77636667D01*
X94257619Y77589048D01*
X94305238Y77541429D01*
X94352857Y77446191D01*
X94352857Y77208096D01*
X94305238Y77112858D01*
X94257619Y77065239D01*
X94162380Y77017620D01*
X93876666Y77017620D01*
X93781428Y77065239D01*
X93733809Y77112858D01*
X94971904Y78017620D02*
X95067142Y78017620D01*
X95162380Y77970000D01*
X95210000Y77922381D01*
X95257619Y77827143D01*
X95305238Y77636667D01*
X95305238Y77398572D01*
X95257619Y77208096D01*
X95210000Y77112858D01*
X95162380Y77065239D01*
X95067142Y77017620D01*
X94971904Y77017620D01*
X94876666Y77065239D01*
X94829047Y77112858D01*
X94781428Y77208096D01*
X94733809Y77398572D01*
X94733809Y77636667D01*
X94781428Y77827143D01*
X94829047Y77922381D01*
X94876666Y77970000D01*
X94971904Y78017620D01*
X76097142Y78017620D02*
X76763809Y78017620D01*
X76335238Y77017620D01*
X77573333Y77684286D02*
X77573333Y77017620D01*
X77335238Y78065239D02*
X77097142Y77350953D01*
X77716190Y77350953D01*
X78573333Y77017620D02*
X78097142Y77017620D01*
X78097142Y78017620D01*
X78859047Y77065239D02*
X79001904Y77017620D01*
X79240000Y77017620D01*
X79335238Y77065239D01*
X79382857Y77112858D01*
X79430476Y77208096D01*
X79430476Y77303334D01*
X79382857Y77398572D01*
X79335238Y77446191D01*
X79240000Y77493810D01*
X79049523Y77541429D01*
X78954285Y77589048D01*
X78906666Y77636667D01*
X78859047Y77731905D01*
X78859047Y77827143D01*
X78906666Y77922381D01*
X78954285Y77970000D01*
X79049523Y78017620D01*
X79287619Y78017620D01*
X79430476Y77970000D01*
X79763809Y78017620D02*
X80382857Y78017620D01*
X80049523Y77636667D01*
X80192380Y77636667D01*
X80287619Y77589048D01*
X80335238Y77541429D01*
X80382857Y77446191D01*
X80382857Y77208096D01*
X80335238Y77112858D01*
X80287619Y77065239D01*
X80192380Y77017620D01*
X79906666Y77017620D01*
X79811428Y77065239D01*
X79763809Y77112858D01*
X81001904Y78017620D02*
X81097142Y78017620D01*
X81192380Y77970000D01*
X81240000Y77922381D01*
X81287619Y77827143D01*
X81335238Y77636667D01*
X81335238Y77398572D01*
X81287619Y77208096D01*
X81240000Y77112858D01*
X81192380Y77065239D01*
X81097142Y77017620D01*
X81001904Y77017620D01*
X80906666Y77065239D01*
X80859047Y77112858D01*
X80811428Y77208096D01*
X80763809Y77398572D01*
X80763809Y77636667D01*
X80811428Y77827143D01*
X80859047Y77922381D01*
X80906666Y77970000D01*
X81001904Y78017620D01*
X45617142Y74207620D02*
X46283809Y74207620D01*
X45855238Y73207620D01*
X47093333Y73874286D02*
X47093333Y73207620D01*
X46855238Y74255239D02*
X46617142Y73540953D01*
X47236190Y73540953D01*
X48093333Y73207620D02*
X47617142Y73207620D01*
X47617142Y74207620D01*
X48379047Y73255239D02*
X48521904Y73207620D01*
X48760000Y73207620D01*
X48855238Y73255239D01*
X48902857Y73302858D01*
X48950476Y73398096D01*
X48950476Y73493334D01*
X48902857Y73588572D01*
X48855238Y73636191D01*
X48760000Y73683810D01*
X48569523Y73731429D01*
X48474285Y73779048D01*
X48426666Y73826667D01*
X48379047Y73921905D01*
X48379047Y74017143D01*
X48426666Y74112381D01*
X48474285Y74160000D01*
X48569523Y74207620D01*
X48807619Y74207620D01*
X48950476Y74160000D01*
X49569523Y74207620D02*
X49664761Y74207620D01*
X49760000Y74160000D01*
X49807619Y74112381D01*
X49855238Y74017143D01*
X49902857Y73826667D01*
X49902857Y73588572D01*
X49855238Y73398096D01*
X49807619Y73302858D01*
X49760000Y73255239D01*
X49664761Y73207620D01*
X49569523Y73207620D01*
X49474285Y73255239D01*
X49426666Y73302858D01*
X49379047Y73398096D01*
X49331428Y73588572D01*
X49331428Y73826667D01*
X49379047Y74017143D01*
X49426666Y74112381D01*
X49474285Y74160000D01*
X49569523Y74207620D01*
X50760000Y73874286D02*
X50760000Y73207620D01*
X50521904Y74255239D02*
X50283809Y73540953D01*
X50902857Y73540953D01*
X17677142Y74207620D02*
X18343809Y74207620D01*
X17915238Y73207620D01*
X19153333Y73874286D02*
X19153333Y73207620D01*
X18915238Y74255239D02*
X18677142Y73540953D01*
X19296190Y73540953D01*
X20153333Y73207620D02*
X19677142Y73207620D01*
X19677142Y74207620D01*
X20439047Y73255239D02*
X20581904Y73207620D01*
X20820000Y73207620D01*
X20915238Y73255239D01*
X20962857Y73302858D01*
X21010476Y73398096D01*
X21010476Y73493334D01*
X20962857Y73588572D01*
X20915238Y73636191D01*
X20820000Y73683810D01*
X20629523Y73731429D01*
X20534285Y73779048D01*
X20486666Y73826667D01*
X20439047Y73921905D01*
X20439047Y74017143D01*
X20486666Y74112381D01*
X20534285Y74160000D01*
X20629523Y74207620D01*
X20867619Y74207620D01*
X21010476Y74160000D01*
X21629523Y74207620D02*
X21724761Y74207620D01*
X21820000Y74160000D01*
X21867619Y74112381D01*
X21915238Y74017143D01*
X21962857Y73826667D01*
X21962857Y73588572D01*
X21915238Y73398096D01*
X21867619Y73302858D01*
X21820000Y73255239D01*
X21724761Y73207620D01*
X21629523Y73207620D01*
X21534285Y73255239D01*
X21486666Y73302858D01*
X21439047Y73398096D01*
X21391428Y73588572D01*
X21391428Y73826667D01*
X21439047Y74017143D01*
X21486666Y74112381D01*
X21534285Y74160000D01*
X21629523Y74207620D01*
X22820000Y73874286D02*
X22820000Y73207620D01*
X22581904Y74255239D02*
X22343809Y73540953D01*
X22962857Y73540953D01*
X73287142Y44997620D02*
X73382380Y44997620D01*
X73477619Y44950000D01*
X73525238Y44902381D01*
X73572857Y44807143D01*
X73620476Y44616667D01*
X73620476Y44378572D01*
X73572857Y44188096D01*
X73525238Y44092858D01*
X73477619Y44045239D01*
X73382380Y43997620D01*
X73287142Y43997620D01*
X73191904Y44045239D01*
X73144285Y44092858D01*
X73096666Y44188096D01*
X73049047Y44378572D01*
X73049047Y44616667D01*
X73096666Y44807143D01*
X73144285Y44902381D01*
X73191904Y44950000D01*
X73287142Y44997620D01*
X74049047Y44092858D02*
X74096666Y44045239D01*
X74049047Y43997620D01*
X74001428Y44045239D01*
X74049047Y44092858D01*
X74049047Y43997620D01*
X75049047Y43997620D02*
X74477619Y43997620D01*
X74763333Y43997620D02*
X74763333Y44997620D01*
X74668095Y44854762D01*
X74572857Y44759524D01*
X74477619Y44711905D01*
X75906190Y44664286D02*
X75906190Y43997620D01*
X75477619Y44664286D02*
X75477619Y44140477D01*
X75525238Y44045239D01*
X75620476Y43997620D01*
X75763333Y43997620D01*
X75858571Y44045239D01*
X75906190Y44092858D01*
X76715714Y44521429D02*
X76382380Y44521429D01*
X76382380Y43997620D02*
X76382380Y44997620D01*
X76858571Y44997620D01*
X58967619Y54982858D02*
X58967619Y54887620D01*
X58920000Y54792381D01*
X58872380Y54744762D01*
X58777142Y54697143D01*
X58586666Y54649524D01*
X58348571Y54649524D01*
X58158095Y54697143D01*
X58062857Y54744762D01*
X58015238Y54792381D01*
X57967619Y54887620D01*
X57967619Y54982858D01*
X58015238Y55078096D01*
X58062857Y55125715D01*
X58158095Y55173334D01*
X58348571Y55220953D01*
X58586666Y55220953D01*
X58777142Y55173334D01*
X58872380Y55125715D01*
X58920000Y55078096D01*
X58967619Y54982858D01*
X58062857Y54220953D02*
X58015238Y54173334D01*
X57967619Y54220953D01*
X58015238Y54268572D01*
X58062857Y54220953D01*
X57967619Y54220953D01*
X57967619Y53220953D02*
X57967619Y53792381D01*
X57967619Y53506667D02*
X58967619Y53506667D01*
X58824761Y53601905D01*
X58729523Y53697143D01*
X58681904Y53792381D01*
X58634285Y52363810D02*
X57967619Y52363810D01*
X58634285Y52792381D02*
X58110476Y52792381D01*
X58015238Y52744762D01*
X57967619Y52649524D01*
X57967619Y52506667D01*
X58015238Y52411429D01*
X58062857Y52363810D01*
X58491428Y51554286D02*
X58491428Y51887620D01*
X57967619Y51887620D02*
X58967619Y51887620D01*
X58967619Y51411429D01*
X69477142Y70397620D02*
X69572380Y70397620D01*
X69667619Y70350000D01*
X69715238Y70302381D01*
X69762857Y70207143D01*
X69810476Y70016667D01*
X69810476Y69778572D01*
X69762857Y69588096D01*
X69715238Y69492858D01*
X69667619Y69445239D01*
X69572380Y69397620D01*
X69477142Y69397620D01*
X69381904Y69445239D01*
X69334285Y69492858D01*
X69286666Y69588096D01*
X69239047Y69778572D01*
X69239047Y70016667D01*
X69286666Y70207143D01*
X69334285Y70302381D01*
X69381904Y70350000D01*
X69477142Y70397620D01*
X70239047Y69492858D02*
X70286666Y69445239D01*
X70239047Y69397620D01*
X70191428Y69445239D01*
X70239047Y69492858D01*
X70239047Y69397620D01*
X71239047Y69397620D02*
X70667619Y69397620D01*
X70953333Y69397620D02*
X70953333Y70397620D01*
X70858095Y70254762D01*
X70762857Y70159524D01*
X70667619Y70111905D01*
X72096190Y70064286D02*
X72096190Y69397620D01*
X71667619Y70064286D02*
X71667619Y69540477D01*
X71715238Y69445239D01*
X71810476Y69397620D01*
X71953333Y69397620D01*
X72048571Y69445239D01*
X72096190Y69492858D01*
X72905714Y69921429D02*
X72572380Y69921429D01*
X72572380Y69397620D02*
X72572380Y70397620D01*
X73048571Y70397620D01*
X82177142Y75477620D02*
X82272380Y75477620D01*
X82367619Y75430000D01*
X82415238Y75382381D01*
X82462857Y75287143D01*
X82510476Y75096667D01*
X82510476Y74858572D01*
X82462857Y74668096D01*
X82415238Y74572858D01*
X82367619Y74525239D01*
X82272380Y74477620D01*
X82177142Y74477620D01*
X82081904Y74525239D01*
X82034285Y74572858D01*
X81986666Y74668096D01*
X81939047Y74858572D01*
X81939047Y75096667D01*
X81986666Y75287143D01*
X82034285Y75382381D01*
X82081904Y75430000D01*
X82177142Y75477620D01*
X82939047Y74572858D02*
X82986666Y74525239D01*
X82939047Y74477620D01*
X82891428Y74525239D01*
X82939047Y74572858D01*
X82939047Y74477620D01*
X83939047Y74477620D02*
X83367619Y74477620D01*
X83653333Y74477620D02*
X83653333Y75477620D01*
X83558095Y75334762D01*
X83462857Y75239524D01*
X83367619Y75191905D01*
X84796190Y75144286D02*
X84796190Y74477620D01*
X84367619Y75144286D02*
X84367619Y74620477D01*
X84415238Y74525239D01*
X84510476Y74477620D01*
X84653333Y74477620D01*
X84748571Y74525239D01*
X84796190Y74572858D01*
X85605714Y75001429D02*
X85272380Y75001429D01*
X85272380Y74477620D02*
X85272380Y75477620D01*
X85748571Y75477620D01*
X78367142Y88177620D02*
X78462380Y88177620D01*
X78557619Y88130000D01*
X78605238Y88082381D01*
X78652857Y87987143D01*
X78700476Y87796667D01*
X78700476Y87558572D01*
X78652857Y87368096D01*
X78605238Y87272858D01*
X78557619Y87225239D01*
X78462380Y87177620D01*
X78367142Y87177620D01*
X78271904Y87225239D01*
X78224285Y87272858D01*
X78176666Y87368096D01*
X78129047Y87558572D01*
X78129047Y87796667D01*
X78176666Y87987143D01*
X78224285Y88082381D01*
X78271904Y88130000D01*
X78367142Y88177620D01*
X79129047Y87272858D02*
X79176666Y87225239D01*
X79129047Y87177620D01*
X79081428Y87225239D01*
X79129047Y87272858D01*
X79129047Y87177620D01*
X80129047Y87177620D02*
X79557619Y87177620D01*
X79843333Y87177620D02*
X79843333Y88177620D01*
X79748095Y88034762D01*
X79652857Y87939524D01*
X79557619Y87891905D01*
X80986190Y87844286D02*
X80986190Y87177620D01*
X80557619Y87844286D02*
X80557619Y87320477D01*
X80605238Y87225239D01*
X80700476Y87177620D01*
X80843333Y87177620D01*
X80938571Y87225239D01*
X80986190Y87272858D01*
X81795714Y87701429D02*
X81462380Y87701429D01*
X81462380Y87177620D02*
X81462380Y88177620D01*
X81938571Y88177620D01*
X55507142Y88177620D02*
X55602380Y88177620D01*
X55697619Y88130000D01*
X55745238Y88082381D01*
X55792857Y87987143D01*
X55840476Y87796667D01*
X55840476Y87558572D01*
X55792857Y87368096D01*
X55745238Y87272858D01*
X55697619Y87225239D01*
X55602380Y87177620D01*
X55507142Y87177620D01*
X55411904Y87225239D01*
X55364285Y87272858D01*
X55316666Y87368096D01*
X55269047Y87558572D01*
X55269047Y87796667D01*
X55316666Y87987143D01*
X55364285Y88082381D01*
X55411904Y88130000D01*
X55507142Y88177620D01*
X56269047Y87272858D02*
X56316666Y87225239D01*
X56269047Y87177620D01*
X56221428Y87225239D01*
X56269047Y87272858D01*
X56269047Y87177620D01*
X57269047Y87177620D02*
X56697619Y87177620D01*
X56983333Y87177620D02*
X56983333Y88177620D01*
X56888095Y88034762D01*
X56792857Y87939524D01*
X56697619Y87891905D01*
X58126190Y87844286D02*
X58126190Y87177620D01*
X57697619Y87844286D02*
X57697619Y87320477D01*
X57745238Y87225239D01*
X57840476Y87177620D01*
X57983333Y87177620D01*
X58078571Y87225239D01*
X58126190Y87272858D01*
X58935714Y87701429D02*
X58602380Y87701429D01*
X58602380Y87177620D02*
X58602380Y88177620D01*
X59078571Y88177620D01*
X30107142Y84367620D02*
X30202380Y84367620D01*
X30297619Y84320000D01*
X30345238Y84272381D01*
X30392857Y84177143D01*
X30440476Y83986667D01*
X30440476Y83748572D01*
X30392857Y83558096D01*
X30345238Y83462858D01*
X30297619Y83415239D01*
X30202380Y83367620D01*
X30107142Y83367620D01*
X30011904Y83415239D01*
X29964285Y83462858D01*
X29916666Y83558096D01*
X29869047Y83748572D01*
X29869047Y83986667D01*
X29916666Y84177143D01*
X29964285Y84272381D01*
X30011904Y84320000D01*
X30107142Y84367620D01*
X30869047Y83462858D02*
X30916666Y83415239D01*
X30869047Y83367620D01*
X30821428Y83415239D01*
X30869047Y83462858D01*
X30869047Y83367620D01*
X31869047Y83367620D02*
X31297619Y83367620D01*
X31583333Y83367620D02*
X31583333Y84367620D01*
X31488095Y84224762D01*
X31392857Y84129524D01*
X31297619Y84081905D01*
X32726190Y84034286D02*
X32726190Y83367620D01*
X32297619Y84034286D02*
X32297619Y83510477D01*
X32345238Y83415239D01*
X32440476Y83367620D01*
X32583333Y83367620D01*
X32678571Y83415239D01*
X32726190Y83462858D01*
X33535714Y83891429D02*
X33202380Y83891429D01*
X33202380Y83367620D02*
X33202380Y84367620D01*
X33678571Y84367620D01*
X4707142Y84367620D02*
X4802380Y84367620D01*
X4897619Y84320000D01*
X4945238Y84272381D01*
X4992857Y84177143D01*
X5040476Y83986667D01*
X5040476Y83748572D01*
X4992857Y83558096D01*
X4945238Y83462858D01*
X4897619Y83415239D01*
X4802380Y83367620D01*
X4707142Y83367620D01*
X4611904Y83415239D01*
X4564285Y83462858D01*
X4516666Y83558096D01*
X4469047Y83748572D01*
X4469047Y83986667D01*
X4516666Y84177143D01*
X4564285Y84272381D01*
X4611904Y84320000D01*
X4707142Y84367620D01*
X5469047Y83462858D02*
X5516666Y83415239D01*
X5469047Y83367620D01*
X5421428Y83415239D01*
X5469047Y83462858D01*
X5469047Y83367620D01*
X6469047Y83367620D02*
X5897619Y83367620D01*
X6183333Y83367620D02*
X6183333Y84367620D01*
X6088095Y84224762D01*
X5992857Y84129524D01*
X5897619Y84081905D01*
X7326190Y84034286D02*
X7326190Y83367620D01*
X6897619Y84034286D02*
X6897619Y83510477D01*
X6945238Y83415239D01*
X7040476Y83367620D01*
X7183333Y83367620D01*
X7278571Y83415239D01*
X7326190Y83462858D01*
X8135714Y83891429D02*
X7802380Y83891429D01*
X7802380Y83367620D02*
X7802380Y84367620D01*
X8278571Y84367620D01*
X9882380Y88447620D02*
X9310952Y88447620D01*
X9596666Y88447620D02*
X9596666Y89447620D01*
X9501428Y89304762D01*
X9406190Y89209524D01*
X9310952Y89161905D01*
X10501428Y89447620D02*
X10596666Y89447620D01*
X10691904Y89400000D01*
X10739523Y89352381D01*
X10787142Y89257143D01*
X10834761Y89066667D01*
X10834761Y88828572D01*
X10787142Y88638096D01*
X10739523Y88542858D01*
X10691904Y88495239D01*
X10596666Y88447620D01*
X10501428Y88447620D01*
X10406190Y88495239D01*
X10358571Y88542858D01*
X10310952Y88638096D01*
X10263333Y88828572D01*
X10263333Y89066667D01*
X10310952Y89257143D01*
X10358571Y89352381D01*
X10406190Y89400000D01*
X10501428Y89447620D01*
X11453809Y89447620D02*
X11549047Y89447620D01*
X11644285Y89400000D01*
X11691904Y89352381D01*
X11739523Y89257143D01*
X11787142Y89066667D01*
X11787142Y88828572D01*
X11739523Y88638096D01*
X11691904Y88542858D01*
X11644285Y88495239D01*
X11549047Y88447620D01*
X11453809Y88447620D01*
X11358571Y88495239D01*
X11310952Y88542858D01*
X11263333Y88638096D01*
X11215714Y88828572D01*
X11215714Y89066667D01*
X11263333Y89257143D01*
X11310952Y89352381D01*
X11358571Y89400000D01*
X11453809Y89447620D01*
X12644285Y89114286D02*
X12644285Y88447620D01*
X12215714Y89114286D02*
X12215714Y88590477D01*
X12263333Y88495239D01*
X12358571Y88447620D01*
X12501428Y88447620D01*
X12596666Y88495239D01*
X12644285Y88542858D01*
X13453809Y88971429D02*
X13120476Y88971429D01*
X13120476Y88447620D02*
X13120476Y89447620D01*
X13596666Y89447620D01*
D11*
X53158857Y619239D02*
X53158857Y2619239D01*
X53658857Y1190667D01*
X54158857Y2619239D01*
X54158857Y619239D01*
X54730285Y2619239D02*
X55730285Y2619239D01*
X54730285Y619239D01*
X55730285Y619239D01*
X56301714Y1381143D02*
X57444571Y1381143D01*
X58944571Y619239D02*
X58087428Y619239D01*
X58516000Y619239D02*
X58516000Y2619239D01*
X58373142Y2333524D01*
X58230285Y2143048D01*
X58087428Y2047810D01*
X60301714Y2619239D02*
X59587428Y2619239D01*
X59516000Y1666858D01*
X59587428Y1762096D01*
X59730285Y1857334D01*
X60087428Y1857334D01*
X60230285Y1762096D01*
X60301714Y1666858D01*
X60373142Y1476381D01*
X60373142Y1000191D01*
X60301714Y809715D01*
X60230285Y714477D01*
X60087428Y619239D01*
X59730285Y619239D01*
X59587428Y714477D01*
X59516000Y809715D01*
X61301714Y2619239D02*
X61444571Y2619239D01*
X61587428Y2524000D01*
X61658857Y2428762D01*
X61730285Y2238286D01*
X61801714Y1857334D01*
X61801714Y1381143D01*
X61730285Y1000191D01*
X61658857Y809715D01*
X61587428Y714477D01*
X61444571Y619239D01*
X61301714Y619239D01*
X61158857Y714477D01*
X61087428Y809715D01*
X61016000Y1000191D01*
X60944571Y1381143D01*
X60944571Y1857334D01*
X61016000Y2238286D01*
X61087428Y2428762D01*
X61158857Y2524000D01*
X61301714Y2619239D01*
X62730285Y2619239D02*
X62873142Y2619239D01*
X63016000Y2524000D01*
X63087428Y2428762D01*
X63158857Y2238286D01*
X63230285Y1857334D01*
X63230285Y1381143D01*
X63158857Y1000191D01*
X63087428Y809715D01*
X63016000Y714477D01*
X62873142Y619239D01*
X62730285Y619239D01*
X62587428Y714477D01*
X62516000Y809715D01*
X62444571Y1000191D01*
X62373142Y1381143D01*
X62373142Y1857334D01*
X62444571Y2238286D01*
X62516000Y2428762D01*
X62587428Y2524000D01*
X62730285Y2619239D01*
X63516000Y428762D02*
X64658857Y428762D01*
X64944571Y714477D02*
X65158857Y619239D01*
X65516000Y619239D01*
X65658857Y714477D01*
X65730285Y809715D01*
X65801714Y1000191D01*
X65801714Y1190667D01*
X65730285Y1381143D01*
X65658857Y1476381D01*
X65516000Y1571620D01*
X65230285Y1666858D01*
X65087428Y1762096D01*
X65016000Y1857334D01*
X64944571Y2047810D01*
X64944571Y2238286D01*
X65016000Y2428762D01*
X65087428Y2524000D01*
X65230285Y2619239D01*
X65587428Y2619239D01*
X65801714Y2524000D01*
X66444571Y619239D02*
X66444571Y2619239D01*
X66801714Y2619239D01*
X67016000Y2524000D01*
X67158857Y2333524D01*
X67230285Y2143048D01*
X67301714Y1762096D01*
X67301714Y1476381D01*
X67230285Y1095429D01*
X67158857Y904953D01*
X67016000Y714477D01*
X66801714Y619239D01*
X66444571Y619239D01*
X69944571Y619239D02*
X69444571Y1571620D01*
X69087428Y619239D02*
X69087428Y2619239D01*
X69658857Y2619239D01*
X69801714Y2524000D01*
X69873142Y2428762D01*
X69944571Y2238286D01*
X69944571Y1952572D01*
X69873142Y1762096D01*
X69801714Y1666858D01*
X69658857Y1571620D01*
X69087428Y1571620D01*
X71158857Y714477D02*
X71016000Y619239D01*
X70730285Y619239D01*
X70587428Y714477D01*
X70516000Y904953D01*
X70516000Y1666858D01*
X70587428Y1857334D01*
X70730285Y1952572D01*
X71016000Y1952572D01*
X71158857Y1857334D01*
X71230285Y1666858D01*
X71230285Y1476381D01*
X70516000Y1285905D01*
X71730285Y1952572D02*
X72087428Y619239D01*
X72444571Y1952572D01*
X73801714Y619239D02*
X72944571Y619239D01*
X73373142Y619239D02*
X73373142Y2619239D01*
X73230285Y2333524D01*
X73087428Y2143048D01*
X72944571Y2047810D01*
X74444571Y809715D02*
X74516000Y714477D01*
X74444571Y619239D01*
X74373142Y714477D01*
X74444571Y809715D01*
X74444571Y619239D01*
X75801714Y1952572D02*
X75801714Y619239D01*
X75444571Y2714477D02*
X75087428Y1285905D01*
X76016000Y1285905D01*
D12*
X9117000Y81896000D02*
X9117000Y77656000D01*
X6377000Y81896000D02*
X6377000Y77656000D01*
X9117000Y81896000D02*
X8412000Y81896000D01*
X7082000Y81896000D02*
X6377000Y81896000D01*
X9117000Y77656000D02*
X8412000Y77656000D01*
X7082000Y77656000D02*
X6377000Y77656000D01*
X32355000Y77910000D02*
X31650000Y77910000D01*
X34390000Y77910000D02*
X33685000Y77910000D01*
X32355000Y82150000D02*
X31650000Y82150000D01*
X34390000Y82150000D02*
X33685000Y82150000D01*
X31650000Y82150000D02*
X31650000Y77910000D01*
X34390000Y82150000D02*
X34390000Y77910000D01*
X58520000Y85960000D02*
X58520000Y81720000D01*
X55780000Y85960000D02*
X55780000Y81720000D01*
X58520000Y85960000D02*
X57815000Y85960000D01*
X56485000Y85960000D02*
X55780000Y85960000D01*
X58520000Y81720000D02*
X57815000Y81720000D01*
X56485000Y81720000D02*
X55780000Y81720000D01*
X80615000Y81720000D02*
X79910000Y81720000D01*
X82650000Y81720000D02*
X81945000Y81720000D01*
X80615000Y85960000D02*
X79910000Y85960000D01*
X82650000Y85960000D02*
X81945000Y85960000D01*
X79910000Y85960000D02*
X79910000Y81720000D01*
X82650000Y85960000D02*
X82650000Y81720000D01*
X68180000Y68480000D02*
X63940000Y68480000D01*
X68180000Y71220000D02*
X63940000Y71220000D01*
X68180000Y68480000D02*
X68180000Y69185000D01*
X68180000Y70515000D02*
X68180000Y71220000D01*
X63940000Y68480000D02*
X63940000Y69185000D01*
X63940000Y70515000D02*
X63940000Y71220000D01*
X57755000Y56320000D02*
X57050000Y56320000D01*
X59790000Y56320000D02*
X59085000Y56320000D01*
X57755000Y60560000D02*
X57050000Y60560000D01*
X59790000Y60560000D02*
X59085000Y60560000D01*
X57050000Y60560000D02*
X57050000Y56320000D01*
X59790000Y60560000D02*
X59790000Y56320000D01*
X71990000Y43080000D02*
X67750000Y43080000D01*
X71990000Y45820000D02*
X67750000Y45820000D01*
X71990000Y43080000D02*
X71990000Y43785000D01*
X71990000Y45115000D02*
X71990000Y45820000D01*
X67750000Y43080000D02*
X67750000Y43785000D01*
X67750000Y45115000D02*
X67750000Y45820000D01*
X76640000Y75595000D02*
X76640000Y76300000D01*
X76640000Y73560000D02*
X76640000Y74265000D01*
X80880000Y75595000D02*
X80880000Y76300000D01*
X80880000Y73560000D02*
X80880000Y74265000D01*
X80880000Y76300000D02*
X76640000Y76300000D01*
X80880000Y73560000D02*
X76640000Y73560000D01*
X48320000Y39370000D02*
X48320000Y38040000D01*
X48320000Y38040000D02*
X46990000Y38040000D01*
X45720000Y38040000D02*
X32960000Y38040000D01*
X32960000Y40700000D02*
X32960000Y38040000D01*
X45720000Y40700000D02*
X32960000Y40700000D01*
X45720000Y40700000D02*
X45720000Y38040000D01*
X80610000Y1260000D02*
X80610000Y2590000D01*
X81940000Y1260000D02*
X80610000Y1260000D01*
X83210000Y1260000D02*
X83210000Y3920000D01*
X83210000Y3920000D02*
X88350000Y3920000D01*
X83210000Y1260000D02*
X88350000Y1260000D01*
X88350000Y1260000D02*
X88350000Y3920000D01*
X10100000Y82260000D02*
X10100000Y81010000D01*
X28000000Y82260000D02*
X10100000Y82260000D01*
X28000000Y77760000D02*
X28000000Y82260000D01*
X10100000Y77760000D02*
X28000000Y77760000D01*
X10100000Y79010000D02*
X10100000Y77760000D01*
X10100000Y81010000D02*
G75*
G02*
X10100000Y79010000I0J-1000000D01*
G01*
X35500000Y82260000D02*
X35500000Y81010000D01*
X53400000Y82260000D02*
X35500000Y82260000D01*
X53400000Y77760000D02*
X53400000Y82260000D01*
X35500000Y77760000D02*
X53400000Y77760000D01*
X35500000Y79010000D02*
X35500000Y77760000D01*
X35500000Y81010000D02*
G75*
G02*
X35500000Y79010000I0J-1000000D01*
G01*
X59630000Y86070000D02*
X59630000Y84820000D01*
X77530000Y86070000D02*
X59630000Y86070000D01*
X77530000Y81570000D02*
X77530000Y86070000D01*
X59630000Y81570000D02*
X77530000Y81570000D01*
X59630000Y82820000D02*
X59630000Y81570000D01*
X59630000Y84820000D02*
G75*
G02*
X59630000Y82820000I0J-1000000D01*
G01*
X83760000Y82820000D02*
X83760000Y81570000D01*
X83760000Y81570000D02*
X101660000Y81570000D01*
X101660000Y81570000D02*
X101660000Y86070000D01*
X101660000Y86070000D02*
X83760000Y86070000D01*
X83760000Y86070000D02*
X83760000Y84820000D01*
X83760000Y84820000D02*
G75*
G02*
X83760000Y82820000I0J-1000000D01*
G01*
X65040000Y67370000D02*
X63790000Y67370000D01*
X63790000Y67370000D02*
X63790000Y49470000D01*
X63790000Y49470000D02*
X68290000Y49470000D01*
X68290000Y49470000D02*
X68290000Y67370000D01*
X68290000Y67370000D02*
X67040000Y67370000D01*
X67040000Y67370000D02*
G75*
G02*
X65040000Y67370000I-1000000J0D01*
G01*
X5020000Y64480000D02*
X5020000Y59420000D01*
X55940000Y64480000D02*
X5020000Y64480000D01*
X55940000Y52360000D02*
X55940000Y64480000D01*
X5020000Y52360000D02*
X55940000Y52360000D01*
X5020000Y57420000D02*
X5020000Y52360000D01*
X5020000Y59420000D02*
G75*
G02*
X5020000Y57420000I0J-1000000D01*
G01*
X75910000Y41970000D02*
X70850000Y41970000D01*
X75910000Y6290000D02*
X75910000Y41970000D01*
X63790000Y6290000D02*
X75910000Y6290000D01*
X63790000Y41970000D02*
X63790000Y6290000D01*
X68850000Y41970000D02*
X63790000Y41970000D01*
X70850000Y41970000D02*
G75*
G02*
X68850000Y41970000I-1000000J0D01*
G01*
X80990000Y72450000D02*
X79740000Y72450000D01*
X80990000Y46930000D02*
X80990000Y72450000D01*
X76490000Y46930000D02*
X80990000Y46930000D01*
X76490000Y72450000D02*
X76490000Y46930000D01*
X77740000Y72450000D02*
X76490000Y72450000D01*
X79740000Y72450000D02*
G75*
G02*
X77740000Y72450000I-1000000J0D01*
G01*
X52480000Y31799000D02*
X28780000Y31799000D01*
X52480000Y-1000D02*
X52480000Y31799000D01*
X28780000Y-1000D02*
X52480000Y-1000D01*
X28780000Y31799000D02*
X28780000Y-1000D01*
X52130000Y31429000D02*
X52130000Y30099000D01*
X50800000Y31429000D02*
X52130000Y31429000D01*
X49530000Y31429000D02*
X49530000Y28769000D01*
X49530000Y28769000D02*
X29150000Y28769000D01*
X49530000Y31429000D02*
X29150000Y31429000D01*
X29150000Y31429000D02*
X29150000Y28769000D01*
X6223000Y7493000D02*
X24257000Y7493000D01*
X6223000Y40767000D02*
X6223000Y7493000D01*
X21590000Y12700000D02*
X21590000Y40767000D01*
X21590000Y12700000D02*
X24257000Y12700000D01*
X24257000Y40767000D02*
X6220000Y40767000D01*
X8890000Y10160000D02*
X8890000Y40767000D01*
X8890000Y10160000D02*
X6220000Y10160000D01*
X24257000Y7493000D02*
X24257000Y10160000D01*
X24257000Y12700000D02*
X24257000Y40767000D01*
X21590000Y10160000D02*
X24257000Y10160000D01*
X21590000Y12700000D02*
X21590000Y10160000D01*
X19130000Y88920000D02*
G75*
G03*
X19130000Y88920000I-2620000J0D01*
G01*
X19090000Y88920000D02*
X13930000Y88920000D01*
X19090000Y88880000D02*
X13930000Y88880000D01*
X19089000Y88840000D02*
X13931000Y88840000D01*
X19088000Y88800000D02*
X13932000Y88800000D01*
X19086000Y88760000D02*
X13934000Y88760000D01*
X19083000Y88720000D02*
X13937000Y88720000D01*
X19079000Y88680000D02*
X17550000Y88680000D01*
X15470000Y88680000D02*
X13941000Y88680000D01*
X19075000Y88640000D02*
X17550000Y88640000D01*
X15470000Y88640000D02*
X13945000Y88640000D01*
X19071000Y88600000D02*
X17550000Y88600000D01*
X15470000Y88600000D02*
X13949000Y88600000D01*
X19066000Y88560000D02*
X17550000Y88560000D01*
X15470000Y88560000D02*
X13954000Y88560000D01*
X19060000Y88520000D02*
X17550000Y88520000D01*
X15470000Y88520000D02*
X13960000Y88520000D01*
X19053000Y88480000D02*
X17550000Y88480000D01*
X15470000Y88480000D02*
X13967000Y88480000D01*
X19046000Y88440000D02*
X17550000Y88440000D01*
X15470000Y88440000D02*
X13974000Y88440000D01*
X19038000Y88400000D02*
X17550000Y88400000D01*
X15470000Y88400000D02*
X13982000Y88400000D01*
X19030000Y88360000D02*
X17550000Y88360000D01*
X15470000Y88360000D02*
X13990000Y88360000D01*
X19021000Y88320000D02*
X17550000Y88320000D01*
X15470000Y88320000D02*
X13999000Y88320000D01*
X19011000Y88280000D02*
X17550000Y88280000D01*
X15470000Y88280000D02*
X14009000Y88280000D01*
X19001000Y88240000D02*
X17550000Y88240000D01*
X15470000Y88240000D02*
X14019000Y88240000D01*
X18990000Y88199000D02*
X17550000Y88199000D01*
X15470000Y88199000D02*
X14030000Y88199000D01*
X18978000Y88159000D02*
X17550000Y88159000D01*
X15470000Y88159000D02*
X14042000Y88159000D01*
X18965000Y88119000D02*
X17550000Y88119000D01*
X15470000Y88119000D02*
X14055000Y88119000D01*
X18952000Y88079000D02*
X17550000Y88079000D01*
X15470000Y88079000D02*
X14068000Y88079000D01*
X18938000Y88039000D02*
X17550000Y88039000D01*
X15470000Y88039000D02*
X14082000Y88039000D01*
X18924000Y87999000D02*
X17550000Y87999000D01*
X15470000Y87999000D02*
X14096000Y87999000D01*
X18908000Y87959000D02*
X17550000Y87959000D01*
X15470000Y87959000D02*
X14112000Y87959000D01*
X18892000Y87919000D02*
X17550000Y87919000D01*
X15470000Y87919000D02*
X14128000Y87919000D01*
X18875000Y87879000D02*
X17550000Y87879000D01*
X15470000Y87879000D02*
X14145000Y87879000D01*
X18858000Y87839000D02*
X17550000Y87839000D01*
X15470000Y87839000D02*
X14162000Y87839000D01*
X18839000Y87799000D02*
X17550000Y87799000D01*
X15470000Y87799000D02*
X14181000Y87799000D01*
X18820000Y87759000D02*
X17550000Y87759000D01*
X15470000Y87759000D02*
X14200000Y87759000D01*
X18800000Y87719000D02*
X17550000Y87719000D01*
X15470000Y87719000D02*
X14220000Y87719000D01*
X18778000Y87679000D02*
X17550000Y87679000D01*
X15470000Y87679000D02*
X14242000Y87679000D01*
X18757000Y87639000D02*
X17550000Y87639000D01*
X15470000Y87639000D02*
X14263000Y87639000D01*
X18734000Y87599000D02*
X17550000Y87599000D01*
X15470000Y87599000D02*
X14286000Y87599000D01*
X18710000Y87559000D02*
X17550000Y87559000D01*
X15470000Y87559000D02*
X14310000Y87559000D01*
X18685000Y87519000D02*
X17550000Y87519000D01*
X15470000Y87519000D02*
X14335000Y87519000D01*
X18659000Y87479000D02*
X17550000Y87479000D01*
X15470000Y87479000D02*
X14361000Y87479000D01*
X18632000Y87439000D02*
X17550000Y87439000D01*
X15470000Y87439000D02*
X14388000Y87439000D01*
X18605000Y87399000D02*
X17550000Y87399000D01*
X15470000Y87399000D02*
X14415000Y87399000D01*
X18575000Y87359000D02*
X17550000Y87359000D01*
X15470000Y87359000D02*
X14445000Y87359000D01*
X18545000Y87319000D02*
X17550000Y87319000D01*
X15470000Y87319000D02*
X14475000Y87319000D01*
X18514000Y87279000D02*
X17550000Y87279000D01*
X15470000Y87279000D02*
X14506000Y87279000D01*
X18481000Y87239000D02*
X17550000Y87239000D01*
X15470000Y87239000D02*
X14539000Y87239000D01*
X18447000Y87199000D02*
X17550000Y87199000D01*
X15470000Y87199000D02*
X14573000Y87199000D01*
X18411000Y87159000D02*
X17550000Y87159000D01*
X15470000Y87159000D02*
X14609000Y87159000D01*
X18374000Y87119000D02*
X17550000Y87119000D01*
X15470000Y87119000D02*
X14646000Y87119000D01*
X18336000Y87079000D02*
X17550000Y87079000D01*
X15470000Y87079000D02*
X14684000Y87079000D01*
X18295000Y87039000D02*
X17550000Y87039000D01*
X15470000Y87039000D02*
X14725000Y87039000D01*
X18253000Y86999000D02*
X17550000Y86999000D01*
X15470000Y86999000D02*
X14767000Y86999000D01*
X18209000Y86959000D02*
X17550000Y86959000D01*
X15470000Y86959000D02*
X14811000Y86959000D01*
X18163000Y86919000D02*
X17550000Y86919000D01*
X15470000Y86919000D02*
X14857000Y86919000D01*
X18115000Y86879000D02*
X17550000Y86879000D01*
X15470000Y86879000D02*
X14905000Y86879000D01*
X18064000Y86839000D02*
X17550000Y86839000D01*
X15470000Y86839000D02*
X14956000Y86839000D01*
X18010000Y86799000D02*
X17550000Y86799000D01*
X15470000Y86799000D02*
X15010000Y86799000D01*
X17953000Y86759000D02*
X17550000Y86759000D01*
X15470000Y86759000D02*
X15067000Y86759000D01*
X17893000Y86719000D02*
X17550000Y86719000D01*
X15470000Y86719000D02*
X15127000Y86719000D01*
X17829000Y86679000D02*
X17550000Y86679000D01*
X15470000Y86679000D02*
X15191000Y86679000D01*
X17761000Y86639000D02*
X17550000Y86639000D01*
X15470000Y86639000D02*
X15259000Y86639000D01*
X17688000Y86599000D02*
X15332000Y86599000D01*
X17608000Y86559000D02*
X15412000Y86559000D01*
X17521000Y86519000D02*
X15499000Y86519000D01*
X17425000Y86479000D02*
X15595000Y86479000D01*
X17315000Y86439000D02*
X15705000Y86439000D01*
X17187000Y86399000D02*
X15833000Y86399000D01*
X17028000Y86359000D02*
X15992000Y86359000D01*
X16794000Y86319000D02*
X16226000Y86319000D01*
X17985000Y91724775D02*
X17985000Y91224775D01*
X18235000Y91474775D02*
X17735000Y91474775D01*
X85695000Y62670000D02*
X84990000Y62670000D01*
X87730000Y62670000D02*
X87025000Y62670000D01*
X85695000Y66910000D02*
X84990000Y66910000D01*
X87730000Y66910000D02*
X87025000Y66910000D01*
X84990000Y66910000D02*
X84990000Y62670000D01*
X87730000Y66910000D02*
X87730000Y62670000D01*
X100730000Y73760000D02*
X104970000Y73760000D01*
X100730000Y71020000D02*
X104970000Y71020000D01*
X100730000Y73760000D02*
X100730000Y73055000D01*
X100730000Y71725000D02*
X100730000Y71020000D01*
X104970000Y73760000D02*
X104970000Y73055000D01*
X104970000Y71725000D02*
X104970000Y71020000D01*
X97250000Y71020000D02*
X97250000Y71350000D01*
X90710000Y71020000D02*
X97250000Y71020000D01*
X90710000Y71350000D02*
X90710000Y71020000D01*
X97250000Y73760000D02*
X97250000Y73430000D01*
X90710000Y73760000D02*
X97250000Y73760000D01*
X90710000Y73430000D02*
X90710000Y73760000D01*
X88840000Y67020000D02*
X88840000Y65770000D01*
X106740000Y67020000D02*
X88840000Y67020000D01*
X106740000Y62520000D02*
X106740000Y67020000D01*
X88840000Y62520000D02*
X106740000Y62520000D01*
X88840000Y63770000D02*
X88840000Y62520000D01*
X88840000Y65770000D02*
G75*
G02*
X88840000Y63770000I0J-1000000D01*
G01*
X88840000Y54320000D02*
X88840000Y53070000D01*
X109280000Y54320000D02*
X88840000Y54320000D01*
X109280000Y49820000D02*
X109280000Y54320000D01*
X88840000Y49820000D02*
X109280000Y49820000D01*
X88840000Y51070000D02*
X88840000Y49820000D01*
X88840000Y53070000D02*
G75*
G02*
X88840000Y51070000I0J-1000000D01*
G01*
X88840000Y38370000D02*
X88840000Y37120000D01*
X88840000Y37120000D02*
X109280000Y37120000D01*
X109280000Y37120000D02*
X109280000Y41620000D01*
X109280000Y41620000D02*
X88840000Y41620000D01*
X88840000Y41620000D02*
X88840000Y40370000D01*
X88840000Y40370000D02*
G75*
G02*
X88840000Y38370000I0J-1000000D01*
G01*
X88840000Y27650000D02*
X88840000Y26400000D01*
X109280000Y27650000D02*
X88840000Y27650000D01*
X109280000Y23150000D02*
X109280000Y27650000D01*
X88840000Y23150000D02*
X109280000Y23150000D01*
X88840000Y24400000D02*
X88840000Y23150000D01*
X88840000Y26400000D02*
G75*
G02*
X88840000Y24400000I0J-1000000D01*
G01*
X88840000Y11700000D02*
X88840000Y10450000D01*
X88840000Y10450000D02*
X109280000Y10450000D01*
X109280000Y10450000D02*
X109280000Y14950000D01*
X109280000Y14950000D02*
X88840000Y14950000D01*
X88840000Y14950000D02*
X88840000Y13700000D01*
X88840000Y13700000D02*
G75*
G02*
X88840000Y11700000I0J-1000000D01*
G01*
X87730000Y54210000D02*
X87730000Y49970000D01*
X84990000Y54210000D02*
X84990000Y49970000D01*
X87730000Y54210000D02*
X87025000Y54210000D01*
X85695000Y54210000D02*
X84990000Y54210000D01*
X87730000Y49970000D02*
X87025000Y49970000D01*
X85695000Y49970000D02*
X84990000Y49970000D01*
X85695000Y37270000D02*
X84990000Y37270000D01*
X87730000Y37270000D02*
X87025000Y37270000D01*
X85695000Y41510000D02*
X84990000Y41510000D01*
X87730000Y41510000D02*
X87025000Y41510000D01*
X84990000Y41510000D02*
X84990000Y37270000D01*
X87730000Y41510000D02*
X87730000Y37270000D01*
X87730000Y27540000D02*
X87730000Y23300000D01*
X84990000Y27540000D02*
X84990000Y23300000D01*
X87730000Y27540000D02*
X87025000Y27540000D01*
X85695000Y27540000D02*
X84990000Y27540000D01*
X87730000Y23300000D02*
X87025000Y23300000D01*
X85695000Y23300000D02*
X84990000Y23300000D01*
X85695000Y10600000D02*
X84990000Y10600000D01*
X87730000Y10600000D02*
X87025000Y10600000D01*
X85695000Y14840000D02*
X84990000Y14840000D01*
X87730000Y14840000D02*
X87025000Y14840000D01*
X84990000Y14840000D02*
X84990000Y10600000D01*
X87730000Y14840000D02*
X87730000Y10600000D01*
D10*
X4913333Y79418858D02*
X4865714Y79371239D01*
X4722857Y79323620D01*
X4627619Y79323620D01*
X4484761Y79371239D01*
X4389523Y79466477D01*
X4341904Y79561715D01*
X4294285Y79752191D01*
X4294285Y79895048D01*
X4341904Y80085524D01*
X4389523Y80180762D01*
X4484761Y80276000D01*
X4627619Y80323620D01*
X4722857Y80323620D01*
X4865714Y80276000D01*
X4913333Y80228381D01*
X5865714Y79323620D02*
X5294285Y79323620D01*
X5580000Y79323620D02*
X5580000Y80323620D01*
X5484761Y80180762D01*
X5389523Y80085524D01*
X5294285Y80037905D01*
X30313333Y79652858D02*
X30265714Y79605239D01*
X30122857Y79557620D01*
X30027619Y79557620D01*
X29884761Y79605239D01*
X29789523Y79700477D01*
X29741904Y79795715D01*
X29694285Y79986191D01*
X29694285Y80129048D01*
X29741904Y80319524D01*
X29789523Y80414762D01*
X29884761Y80510000D01*
X30027619Y80557620D01*
X30122857Y80557620D01*
X30265714Y80510000D01*
X30313333Y80462381D01*
X30694285Y80462381D02*
X30741904Y80510000D01*
X30837142Y80557620D01*
X31075238Y80557620D01*
X31170476Y80510000D01*
X31218095Y80462381D01*
X31265714Y80367143D01*
X31265714Y80271905D01*
X31218095Y80129048D01*
X30646666Y79557620D01*
X31265714Y79557620D01*
X54443333Y83482858D02*
X54395714Y83435239D01*
X54252857Y83387620D01*
X54157619Y83387620D01*
X54014761Y83435239D01*
X53919523Y83530477D01*
X53871904Y83625715D01*
X53824285Y83816191D01*
X53824285Y83959048D01*
X53871904Y84149524D01*
X53919523Y84244762D01*
X54014761Y84340000D01*
X54157619Y84387620D01*
X54252857Y84387620D01*
X54395714Y84340000D01*
X54443333Y84292381D01*
X55300476Y84054286D02*
X55300476Y83387620D01*
X55062380Y84435239D02*
X54824285Y83720953D01*
X55443333Y83720953D01*
X78573333Y83462858D02*
X78525714Y83415239D01*
X78382857Y83367620D01*
X78287619Y83367620D01*
X78144761Y83415239D01*
X78049523Y83510477D01*
X78001904Y83605715D01*
X77954285Y83796191D01*
X77954285Y83939048D01*
X78001904Y84129524D01*
X78049523Y84224762D01*
X78144761Y84320000D01*
X78287619Y84367620D01*
X78382857Y84367620D01*
X78525714Y84320000D01*
X78573333Y84272381D01*
X79478095Y84367620D02*
X79001904Y84367620D01*
X78954285Y83891429D01*
X79001904Y83939048D01*
X79097142Y83986667D01*
X79335238Y83986667D01*
X79430476Y83939048D01*
X79478095Y83891429D01*
X79525714Y83796191D01*
X79525714Y83558096D01*
X79478095Y83462858D01*
X79430476Y83415239D01*
X79335238Y83367620D01*
X79097142Y83367620D01*
X79001904Y83415239D01*
X78954285Y83462858D01*
X62063333Y69492858D02*
X62015714Y69445239D01*
X61872857Y69397620D01*
X61777619Y69397620D01*
X61634761Y69445239D01*
X61539523Y69540477D01*
X61491904Y69635715D01*
X61444285Y69826191D01*
X61444285Y69969048D01*
X61491904Y70159524D01*
X61539523Y70254762D01*
X61634761Y70350000D01*
X61777619Y70397620D01*
X61872857Y70397620D01*
X62015714Y70350000D01*
X62063333Y70302381D01*
X62920476Y70397620D02*
X62730000Y70397620D01*
X62634761Y70350000D01*
X62587142Y70302381D01*
X62491904Y70159524D01*
X62444285Y69969048D01*
X62444285Y69588096D01*
X62491904Y69492858D01*
X62539523Y69445239D01*
X62634761Y69397620D01*
X62825238Y69397620D01*
X62920476Y69445239D01*
X62968095Y69492858D01*
X63015714Y69588096D01*
X63015714Y69826191D01*
X62968095Y69921429D01*
X62920476Y69969048D01*
X62825238Y70016667D01*
X62634761Y70016667D01*
X62539523Y69969048D01*
X62491904Y69921429D01*
X62444285Y69826191D01*
X58253333Y61872858D02*
X58205714Y61825239D01*
X58062857Y61777620D01*
X57967619Y61777620D01*
X57824761Y61825239D01*
X57729523Y61920477D01*
X57681904Y62015715D01*
X57634285Y62206191D01*
X57634285Y62349048D01*
X57681904Y62539524D01*
X57729523Y62634762D01*
X57824761Y62730000D01*
X57967619Y62777620D01*
X58062857Y62777620D01*
X58205714Y62730000D01*
X58253333Y62682381D01*
X58824761Y62349048D02*
X58729523Y62396667D01*
X58681904Y62444286D01*
X58634285Y62539524D01*
X58634285Y62587143D01*
X58681904Y62682381D01*
X58729523Y62730000D01*
X58824761Y62777620D01*
X59015238Y62777620D01*
X59110476Y62730000D01*
X59158095Y62682381D01*
X59205714Y62587143D01*
X59205714Y62539524D01*
X59158095Y62444286D01*
X59110476Y62396667D01*
X59015238Y62349048D01*
X58824761Y62349048D01*
X58729523Y62301429D01*
X58681904Y62253810D01*
X58634285Y62158572D01*
X58634285Y61968096D01*
X58681904Y61872858D01*
X58729523Y61825239D01*
X58824761Y61777620D01*
X59015238Y61777620D01*
X59110476Y61825239D01*
X59158095Y61872858D01*
X59205714Y61968096D01*
X59205714Y62158572D01*
X59158095Y62253810D01*
X59110476Y62301429D01*
X59015238Y62349048D01*
X65397142Y44092858D02*
X65349523Y44045239D01*
X65206666Y43997620D01*
X65111428Y43997620D01*
X64968571Y44045239D01*
X64873333Y44140477D01*
X64825714Y44235715D01*
X64778095Y44426191D01*
X64778095Y44569048D01*
X64825714Y44759524D01*
X64873333Y44854762D01*
X64968571Y44950000D01*
X65111428Y44997620D01*
X65206666Y44997620D01*
X65349523Y44950000D01*
X65397142Y44902381D01*
X66349523Y43997620D02*
X65778095Y43997620D01*
X66063809Y43997620D02*
X66063809Y44997620D01*
X65968571Y44854762D01*
X65873333Y44759524D01*
X65778095Y44711905D01*
X66682857Y44997620D02*
X67301904Y44997620D01*
X66968571Y44616667D01*
X67111428Y44616667D01*
X67206666Y44569048D01*
X67254285Y44521429D01*
X67301904Y44426191D01*
X67301904Y44188096D01*
X67254285Y44092858D01*
X67206666Y44045239D01*
X67111428Y43997620D01*
X66825714Y43997620D01*
X66730476Y44045239D01*
X66682857Y44092858D01*
X74287142Y74572858D02*
X74239523Y74525239D01*
X74096666Y74477620D01*
X74001428Y74477620D01*
X73858571Y74525239D01*
X73763333Y74620477D01*
X73715714Y74715715D01*
X73668095Y74906191D01*
X73668095Y75049048D01*
X73715714Y75239524D01*
X73763333Y75334762D01*
X73858571Y75430000D01*
X74001428Y75477620D01*
X74096666Y75477620D01*
X74239523Y75430000D01*
X74287142Y75382381D01*
X75239523Y74477620D02*
X74668095Y74477620D01*
X74953809Y74477620D02*
X74953809Y75477620D01*
X74858571Y75334762D01*
X74763333Y75239524D01*
X74668095Y75191905D01*
X76096666Y75144286D02*
X76096666Y74477620D01*
X75858571Y75525239D02*
X75620476Y74810953D01*
X76239523Y74810953D01*
X32686666Y42457620D02*
X32686666Y41743334D01*
X32639047Y41600477D01*
X32543809Y41505239D01*
X32400952Y41457620D01*
X32305714Y41457620D01*
X33067619Y42457620D02*
X33686666Y42457620D01*
X33353333Y42076667D01*
X33496190Y42076667D01*
X33591428Y42029048D01*
X33639047Y41981429D01*
X33686666Y41886191D01*
X33686666Y41648096D01*
X33639047Y41552858D01*
X33591428Y41505239D01*
X33496190Y41457620D01*
X33210476Y41457620D01*
X33115238Y41505239D01*
X33067619Y41552858D01*
X81788095Y4675239D02*
X81930952Y4627620D01*
X82169047Y4627620D01*
X82264285Y4675239D01*
X82311904Y4722858D01*
X82359523Y4818096D01*
X82359523Y4913334D01*
X82311904Y5008572D01*
X82264285Y5056191D01*
X82169047Y5103810D01*
X81978571Y5151429D01*
X81883333Y5199048D01*
X81835714Y5246667D01*
X81788095Y5341905D01*
X81788095Y5437143D01*
X81835714Y5532381D01*
X81883333Y5580000D01*
X81978571Y5627620D01*
X82216666Y5627620D01*
X82359523Y5580000D01*
X83311904Y4627620D02*
X82740476Y4627620D01*
X83026190Y4627620D02*
X83026190Y5627620D01*
X82930952Y5484762D01*
X82835714Y5389524D01*
X82740476Y5341905D01*
X14478095Y74207620D02*
X14478095Y73398096D01*
X14525714Y73302858D01*
X14573333Y73255239D01*
X14668571Y73207620D01*
X14859047Y73207620D01*
X14954285Y73255239D01*
X15001904Y73302858D01*
X15049523Y73398096D01*
X15049523Y74207620D01*
X16049523Y73207620D02*
X15478095Y73207620D01*
X15763809Y73207620D02*
X15763809Y74207620D01*
X15668571Y74064762D01*
X15573333Y73969524D01*
X15478095Y73921905D01*
X42418095Y74207620D02*
X42418095Y73398096D01*
X42465714Y73302858D01*
X42513333Y73255239D01*
X42608571Y73207620D01*
X42799047Y73207620D01*
X42894285Y73255239D01*
X42941904Y73302858D01*
X42989523Y73398096D01*
X42989523Y74207620D01*
X43418095Y74112381D02*
X43465714Y74160000D01*
X43560952Y74207620D01*
X43799047Y74207620D01*
X43894285Y74160000D01*
X43941904Y74112381D01*
X43989523Y74017143D01*
X43989523Y73921905D01*
X43941904Y73779048D01*
X43370476Y73207620D01*
X43989523Y73207620D01*
X62738095Y78017620D02*
X62738095Y77208096D01*
X62785714Y77112858D01*
X62833333Y77065239D01*
X62928571Y77017620D01*
X63119047Y77017620D01*
X63214285Y77065239D01*
X63261904Y77112858D01*
X63309523Y77208096D01*
X63309523Y78017620D01*
X63690476Y78017620D02*
X64309523Y78017620D01*
X63976190Y77636667D01*
X64119047Y77636667D01*
X64214285Y77589048D01*
X64261904Y77541429D01*
X64309523Y77446191D01*
X64309523Y77208096D01*
X64261904Y77112858D01*
X64214285Y77065239D01*
X64119047Y77017620D01*
X63833333Y77017620D01*
X63738095Y77065239D01*
X63690476Y77112858D01*
X86868095Y78017620D02*
X86868095Y77208096D01*
X86915714Y77112858D01*
X86963333Y77065239D01*
X87058571Y77017620D01*
X87249047Y77017620D01*
X87344285Y77065239D01*
X87391904Y77112858D01*
X87439523Y77208096D01*
X87439523Y78017620D01*
X88344285Y77684286D02*
X88344285Y77017620D01*
X88106190Y78065239D02*
X87868095Y77350953D01*
X88487142Y77350953D01*
X72937619Y64261905D02*
X72128095Y64261905D01*
X72032857Y64214286D01*
X71985238Y64166667D01*
X71937619Y64071429D01*
X71937619Y63880953D01*
X71985238Y63785715D01*
X72032857Y63738096D01*
X72128095Y63690477D01*
X72937619Y63690477D01*
X72937619Y62738096D02*
X72937619Y63214286D01*
X72461428Y63261905D01*
X72509047Y63214286D01*
X72556666Y63119048D01*
X72556666Y62880953D01*
X72509047Y62785715D01*
X72461428Y62738096D01*
X72366190Y62690477D01*
X72128095Y62690477D01*
X72032857Y62738096D01*
X71985238Y62785715D01*
X71937619Y62880953D01*
X71937619Y63119048D01*
X71985238Y63214286D01*
X72032857Y63261905D01*
X25908095Y48807620D02*
X25908095Y47998096D01*
X25955714Y47902858D01*
X26003333Y47855239D01*
X26098571Y47807620D01*
X26289047Y47807620D01*
X26384285Y47855239D01*
X26431904Y47902858D01*
X26479523Y47998096D01*
X26479523Y48807620D01*
X26860476Y48807620D02*
X27527142Y48807620D01*
X27098571Y47807620D01*
X81827619Y36798096D02*
X81018095Y36798096D01*
X80922857Y36750477D01*
X80875238Y36702858D01*
X80827619Y36607620D01*
X80827619Y36417143D01*
X80875238Y36321905D01*
X80922857Y36274286D01*
X81018095Y36226667D01*
X81827619Y36226667D01*
X80827619Y35226667D02*
X80827619Y35798096D01*
X80827619Y35512381D02*
X81827619Y35512381D01*
X81684761Y35607620D01*
X81589523Y35702858D01*
X81541904Y35798096D01*
X81827619Y34893334D02*
X81827619Y34274286D01*
X81446666Y34607620D01*
X81446666Y34464762D01*
X81399047Y34369524D01*
X81351428Y34321905D01*
X81256190Y34274286D01*
X81018095Y34274286D01*
X80922857Y34321905D01*
X80875238Y34369524D01*
X80827619Y34464762D01*
X80827619Y34750477D01*
X80875238Y34845715D01*
X80922857Y34893334D01*
X85637619Y71088096D02*
X84828095Y71088096D01*
X84732857Y71040477D01*
X84685238Y70992858D01*
X84637619Y70897620D01*
X84637619Y70707143D01*
X84685238Y70611905D01*
X84732857Y70564286D01*
X84828095Y70516667D01*
X85637619Y70516667D01*
X84637619Y69516667D02*
X84637619Y70088096D01*
X84637619Y69802381D02*
X85637619Y69802381D01*
X85494761Y69897620D01*
X85399523Y69992858D01*
X85351904Y70088096D01*
X85304285Y68659524D02*
X84637619Y68659524D01*
X85685238Y68897620D02*
X84970952Y69135715D01*
X84970952Y68516667D01*
X30146666Y33567620D02*
X30146666Y32853334D01*
X30099047Y32710477D01*
X30003809Y32615239D01*
X29860952Y32567620D01*
X29765714Y32567620D01*
X30575238Y33472381D02*
X30622857Y33520000D01*
X30718095Y33567620D01*
X30956190Y33567620D01*
X31051428Y33520000D01*
X31099047Y33472381D01*
X31146666Y33377143D01*
X31146666Y33281905D01*
X31099047Y33139048D01*
X30527619Y32567620D01*
X31146666Y32567620D01*
X34648095Y32853334D02*
X35124285Y32853334D01*
X34552857Y32567620D02*
X34886190Y33567620D01*
X35219523Y32567620D01*
X35552857Y33091429D02*
X35886190Y33091429D01*
X36029047Y32567620D02*
X35552857Y32567620D01*
X35552857Y33567620D01*
X36029047Y33567620D01*
X36457619Y32948572D02*
X37219523Y32948572D01*
X37695714Y32567620D02*
X37695714Y33234286D01*
X37695714Y33139048D02*
X37743333Y33186667D01*
X37838571Y33234286D01*
X37981428Y33234286D01*
X38076666Y33186667D01*
X38124285Y33091429D01*
X38124285Y32567620D01*
X38124285Y33091429D02*
X38171904Y33186667D01*
X38267142Y33234286D01*
X38410000Y33234286D01*
X38505238Y33186667D01*
X38552857Y33091429D01*
X38552857Y32567620D01*
X39029047Y32567620D02*
X39029047Y33234286D01*
X39029047Y33567620D02*
X38981428Y33520000D01*
X39029047Y33472381D01*
X39076666Y33520000D01*
X39029047Y33567620D01*
X39029047Y33472381D01*
X39933809Y32615239D02*
X39838571Y32567620D01*
X39648095Y32567620D01*
X39552857Y32615239D01*
X39505238Y32662858D01*
X39457619Y32758096D01*
X39457619Y33043810D01*
X39505238Y33139048D01*
X39552857Y33186667D01*
X39648095Y33234286D01*
X39838571Y33234286D01*
X39933809Y33186667D01*
X40362380Y32567620D02*
X40362380Y33234286D01*
X40362380Y33043810D02*
X40410000Y33139048D01*
X40457619Y33186667D01*
X40552857Y33234286D01*
X40648095Y33234286D01*
X41124285Y32567620D02*
X41029047Y32615239D01*
X40981428Y32662858D01*
X40933809Y32758096D01*
X40933809Y33043810D01*
X40981428Y33139048D01*
X41029047Y33186667D01*
X41124285Y33234286D01*
X41267142Y33234286D01*
X41362380Y33186667D01*
X41410000Y33139048D01*
X41457619Y33043810D01*
X41457619Y32758096D01*
X41410000Y32662858D01*
X41362380Y32615239D01*
X41267142Y32567620D01*
X41124285Y32567620D01*
X41838571Y32615239D02*
X41981428Y32567620D01*
X42219523Y32567620D01*
X42314761Y32615239D01*
X42362380Y32662858D01*
X42410000Y32758096D01*
X42410000Y32853334D01*
X42362380Y32948572D01*
X42314761Y32996191D01*
X42219523Y33043810D01*
X42029047Y33091429D01*
X41933809Y33139048D01*
X41886190Y33186667D01*
X41838571Y33281905D01*
X41838571Y33377143D01*
X41886190Y33472381D01*
X41933809Y33520000D01*
X42029047Y33567620D01*
X42267142Y33567620D01*
X42410000Y33520000D01*
X42838571Y32567620D02*
X42838571Y33567620D01*
X43076666Y33567620D01*
X43219523Y33520000D01*
X43314761Y33424762D01*
X43362380Y33329524D01*
X43410000Y33139048D01*
X43410000Y32996191D01*
X43362380Y32805715D01*
X43314761Y32710477D01*
X43219523Y32615239D01*
X43076666Y32567620D01*
X42838571Y32567620D01*
X43838571Y32948572D02*
X44600476Y32948572D01*
X45552857Y32567620D02*
X45076666Y32567620D01*
X45076666Y33567620D01*
X46362380Y32567620D02*
X45886190Y32567620D01*
X45886190Y33567620D01*
X47267142Y32662858D02*
X47219523Y32615239D01*
X47076666Y32567620D01*
X46981428Y32567620D01*
X46838571Y32615239D01*
X46743333Y32710477D01*
X46695714Y32805715D01*
X46648095Y32996191D01*
X46648095Y33139048D01*
X46695714Y33329524D01*
X46743333Y33424762D01*
X46838571Y33520000D01*
X46981428Y33567620D01*
X47076666Y33567620D01*
X47219523Y33520000D01*
X47267142Y33472381D01*
X47695714Y32567620D02*
X47695714Y33567620D01*
X48267142Y32567620D01*
X48267142Y33567620D01*
X48600476Y33567620D02*
X48933809Y32567620D01*
X49267142Y33567620D01*
X6858095Y42457620D02*
X6858095Y41648096D01*
X6905714Y41552858D01*
X6953333Y41505239D01*
X7048571Y41457620D01*
X7239047Y41457620D01*
X7334285Y41505239D01*
X7381904Y41552858D01*
X7429523Y41648096D01*
X7429523Y42457620D01*
X8048571Y42029048D02*
X7953333Y42076667D01*
X7905714Y42124286D01*
X7858095Y42219524D01*
X7858095Y42267143D01*
X7905714Y42362381D01*
X7953333Y42410000D01*
X8048571Y42457620D01*
X8239047Y42457620D01*
X8334285Y42410000D01*
X8381904Y42362381D01*
X8429523Y42267143D01*
X8429523Y42219524D01*
X8381904Y42124286D01*
X8334285Y42076667D01*
X8239047Y42029048D01*
X8048571Y42029048D01*
X7953333Y41981429D01*
X7905714Y41933810D01*
X7858095Y41838572D01*
X7858095Y41648096D01*
X7905714Y41552858D01*
X7953333Y41505239D01*
X8048571Y41457620D01*
X8239047Y41457620D01*
X8334285Y41505239D01*
X8381904Y41552858D01*
X8429523Y41648096D01*
X8429523Y41838572D01*
X8381904Y41933810D01*
X8334285Y41981429D01*
X8239047Y42029048D01*
X20093333Y88562858D02*
X20045714Y88515239D01*
X19902857Y88467620D01*
X19807619Y88467620D01*
X19664761Y88515239D01*
X19569523Y88610477D01*
X19521904Y88705715D01*
X19474285Y88896191D01*
X19474285Y89039048D01*
X19521904Y89229524D01*
X19569523Y89324762D01*
X19664761Y89420000D01*
X19807619Y89467620D01*
X19902857Y89467620D01*
X20045714Y89420000D01*
X20093333Y89372381D01*
X20426666Y89467620D02*
X21045714Y89467620D01*
X20712380Y89086667D01*
X20855238Y89086667D01*
X20950476Y89039048D01*
X20998095Y88991429D01*
X21045714Y88896191D01*
X21045714Y88658096D01*
X20998095Y88562858D01*
X20950476Y88515239D01*
X20855238Y88467620D01*
X20569523Y88467620D01*
X20474285Y88515239D01*
X20426666Y88562858D01*
X86930666Y92492620D02*
X86930666Y91778334D01*
X86883047Y91635477D01*
X86787809Y91540239D01*
X86644952Y91492620D01*
X86549714Y91492620D01*
X87930666Y91492620D02*
X87359238Y91492620D01*
X87644952Y91492620D02*
X87644952Y92492620D01*
X87549714Y92349762D01*
X87454476Y92254524D01*
X87359238Y92206905D01*
X86193333Y68222858D02*
X86145714Y68175239D01*
X86002857Y68127620D01*
X85907619Y68127620D01*
X85764761Y68175239D01*
X85669523Y68270477D01*
X85621904Y68365715D01*
X85574285Y68556191D01*
X85574285Y68699048D01*
X85621904Y68889524D01*
X85669523Y68984762D01*
X85764761Y69080000D01*
X85907619Y69127620D01*
X86002857Y69127620D01*
X86145714Y69080000D01*
X86193333Y69032381D01*
X86526666Y69127620D02*
X87193333Y69127620D01*
X86764761Y68127620D01*
X102207142Y74532858D02*
X102159523Y74485239D01*
X102016666Y74437620D01*
X101921428Y74437620D01*
X101778571Y74485239D01*
X101683333Y74580477D01*
X101635714Y74675715D01*
X101588095Y74866191D01*
X101588095Y75009048D01*
X101635714Y75199524D01*
X101683333Y75294762D01*
X101778571Y75390000D01*
X101921428Y75437620D01*
X102016666Y75437620D01*
X102159523Y75390000D01*
X102207142Y75342381D01*
X103159523Y74437620D02*
X102588095Y74437620D01*
X102873809Y74437620D02*
X102873809Y75437620D01*
X102778571Y75294762D01*
X102683333Y75199524D01*
X102588095Y75151905D01*
X104064285Y75437620D02*
X103588095Y75437620D01*
X103540476Y74961429D01*
X103588095Y75009048D01*
X103683333Y75056667D01*
X103921428Y75056667D01*
X104016666Y75009048D01*
X104064285Y74961429D01*
X104111904Y74866191D01*
X104111904Y74628096D01*
X104064285Y74532858D01*
X104016666Y74485239D01*
X103921428Y74437620D01*
X103683333Y74437620D01*
X103588095Y74485239D01*
X103540476Y74532858D01*
X90003333Y74477620D02*
X89670000Y74953810D01*
X89431904Y74477620D02*
X89431904Y75477620D01*
X89812857Y75477620D01*
X89908095Y75430000D01*
X89955714Y75382381D01*
X90003333Y75287143D01*
X90003333Y75144286D01*
X89955714Y75049048D01*
X89908095Y75001429D01*
X89812857Y74953810D01*
X89431904Y74953810D01*
X90955714Y74477620D02*
X90384285Y74477620D01*
X90670000Y74477620D02*
X90670000Y75477620D01*
X90574761Y75334762D01*
X90479523Y75239524D01*
X90384285Y75191905D01*
X107188095Y65317620D02*
X107188095Y64508096D01*
X107235714Y64412858D01*
X107283333Y64365239D01*
X107378571Y64317620D01*
X107569047Y64317620D01*
X107664285Y64365239D01*
X107711904Y64412858D01*
X107759523Y64508096D01*
X107759523Y65317620D01*
X108664285Y65317620D02*
X108473809Y65317620D01*
X108378571Y65270000D01*
X108330952Y65222381D01*
X108235714Y65079524D01*
X108188095Y64889048D01*
X108188095Y64508096D01*
X108235714Y64412858D01*
X108283333Y64365239D01*
X108378571Y64317620D01*
X108569047Y64317620D01*
X108664285Y64365239D01*
X108711904Y64412858D01*
X108759523Y64508096D01*
X108759523Y64746191D01*
X108711904Y64841429D01*
X108664285Y64889048D01*
X108569047Y64936667D01*
X108378571Y64936667D01*
X108283333Y64889048D01*
X108235714Y64841429D01*
X108188095Y64746191D01*
X109728095Y52617620D02*
X109728095Y51808096D01*
X109775714Y51712858D01*
X109823333Y51665239D01*
X109918571Y51617620D01*
X110109047Y51617620D01*
X110204285Y51665239D01*
X110251904Y51712858D01*
X110299523Y51808096D01*
X110299523Y52617620D01*
X110823333Y51617620D02*
X111013809Y51617620D01*
X111109047Y51665239D01*
X111156666Y51712858D01*
X111251904Y51855715D01*
X111299523Y52046191D01*
X111299523Y52427143D01*
X111251904Y52522381D01*
X111204285Y52570000D01*
X111109047Y52617620D01*
X110918571Y52617620D01*
X110823333Y52570000D01*
X110775714Y52522381D01*
X110728095Y52427143D01*
X110728095Y52189048D01*
X110775714Y52093810D01*
X110823333Y52046191D01*
X110918571Y51998572D01*
X111109047Y51998572D01*
X111204285Y52046191D01*
X111251904Y52093810D01*
X111299523Y52189048D01*
X109251904Y39917620D02*
X109251904Y39108096D01*
X109299523Y39012858D01*
X109347142Y38965239D01*
X109442380Y38917620D01*
X109632857Y38917620D01*
X109728095Y38965239D01*
X109775714Y39012858D01*
X109823333Y39108096D01*
X109823333Y39917620D01*
X110823333Y38917620D02*
X110251904Y38917620D01*
X110537619Y38917620D02*
X110537619Y39917620D01*
X110442380Y39774762D01*
X110347142Y39679524D01*
X110251904Y39631905D01*
X111442380Y39917620D02*
X111537619Y39917620D01*
X111632857Y39870000D01*
X111680476Y39822381D01*
X111728095Y39727143D01*
X111775714Y39536667D01*
X111775714Y39298572D01*
X111728095Y39108096D01*
X111680476Y39012858D01*
X111632857Y38965239D01*
X111537619Y38917620D01*
X111442380Y38917620D01*
X111347142Y38965239D01*
X111299523Y39012858D01*
X111251904Y39108096D01*
X111204285Y39298572D01*
X111204285Y39536667D01*
X111251904Y39727143D01*
X111299523Y39822381D01*
X111347142Y39870000D01*
X111442380Y39917620D01*
X109251904Y25947620D02*
X109251904Y25138096D01*
X109299523Y25042858D01*
X109347142Y24995239D01*
X109442380Y24947620D01*
X109632857Y24947620D01*
X109728095Y24995239D01*
X109775714Y25042858D01*
X109823333Y25138096D01*
X109823333Y25947620D01*
X110823333Y24947620D02*
X110251904Y24947620D01*
X110537619Y24947620D02*
X110537619Y25947620D01*
X110442380Y25804762D01*
X110347142Y25709524D01*
X110251904Y25661905D01*
X111775714Y24947620D02*
X111204285Y24947620D01*
X111490000Y24947620D02*
X111490000Y25947620D01*
X111394761Y25804762D01*
X111299523Y25709524D01*
X111204285Y25661905D01*
X110521904Y13247620D02*
X110521904Y12438096D01*
X110569523Y12342858D01*
X110617142Y12295239D01*
X110712380Y12247620D01*
X110902857Y12247620D01*
X110998095Y12295239D01*
X111045714Y12342858D01*
X111093333Y12438096D01*
X111093333Y13247620D01*
X112093333Y12247620D02*
X111521904Y12247620D01*
X111807619Y12247620D02*
X111807619Y13247620D01*
X111712380Y13104762D01*
X111617142Y13009524D01*
X111521904Y12961905D01*
X112474285Y13152381D02*
X112521904Y13200000D01*
X112617142Y13247620D01*
X112855238Y13247620D01*
X112950476Y13200000D01*
X112998095Y13152381D01*
X113045714Y13057143D01*
X113045714Y12961905D01*
X112998095Y12819048D01*
X112426666Y12247620D01*
X113045714Y12247620D01*
X86193333Y47902858D02*
X86145714Y47855239D01*
X86002857Y47807620D01*
X85907619Y47807620D01*
X85764761Y47855239D01*
X85669523Y47950477D01*
X85621904Y48045715D01*
X85574285Y48236191D01*
X85574285Y48379048D01*
X85621904Y48569524D01*
X85669523Y48664762D01*
X85764761Y48760000D01*
X85907619Y48807620D01*
X86002857Y48807620D01*
X86145714Y48760000D01*
X86193333Y48712381D01*
X86669523Y47807620D02*
X86860000Y47807620D01*
X86955238Y47855239D01*
X87002857Y47902858D01*
X87098095Y48045715D01*
X87145714Y48236191D01*
X87145714Y48617143D01*
X87098095Y48712381D01*
X87050476Y48760000D01*
X86955238Y48807620D01*
X86764761Y48807620D01*
X86669523Y48760000D01*
X86621904Y48712381D01*
X86574285Y48617143D01*
X86574285Y48379048D01*
X86621904Y48283810D01*
X86669523Y48236191D01*
X86764761Y48188572D01*
X86955238Y48188572D01*
X87050476Y48236191D01*
X87098095Y48283810D01*
X87145714Y48379048D01*
X85717142Y42822858D02*
X85669523Y42775239D01*
X85526666Y42727620D01*
X85431428Y42727620D01*
X85288571Y42775239D01*
X85193333Y42870477D01*
X85145714Y42965715D01*
X85098095Y43156191D01*
X85098095Y43299048D01*
X85145714Y43489524D01*
X85193333Y43584762D01*
X85288571Y43680000D01*
X85431428Y43727620D01*
X85526666Y43727620D01*
X85669523Y43680000D01*
X85717142Y43632381D01*
X86669523Y42727620D02*
X86098095Y42727620D01*
X86383809Y42727620D02*
X86383809Y43727620D01*
X86288571Y43584762D01*
X86193333Y43489524D01*
X86098095Y43441905D01*
X87288571Y43727620D02*
X87383809Y43727620D01*
X87479047Y43680000D01*
X87526666Y43632381D01*
X87574285Y43537143D01*
X87621904Y43346667D01*
X87621904Y43108572D01*
X87574285Y42918096D01*
X87526666Y42822858D01*
X87479047Y42775239D01*
X87383809Y42727620D01*
X87288571Y42727620D01*
X87193333Y42775239D01*
X87145714Y42822858D01*
X87098095Y42918096D01*
X87050476Y43108572D01*
X87050476Y43346667D01*
X87098095Y43537143D01*
X87145714Y43632381D01*
X87193333Y43680000D01*
X87288571Y43727620D01*
X85717142Y28852858D02*
X85669523Y28805239D01*
X85526666Y28757620D01*
X85431428Y28757620D01*
X85288571Y28805239D01*
X85193333Y28900477D01*
X85145714Y28995715D01*
X85098095Y29186191D01*
X85098095Y29329048D01*
X85145714Y29519524D01*
X85193333Y29614762D01*
X85288571Y29710000D01*
X85431428Y29757620D01*
X85526666Y29757620D01*
X85669523Y29710000D01*
X85717142Y29662381D01*
X86669523Y28757620D02*
X86098095Y28757620D01*
X86383809Y28757620D02*
X86383809Y29757620D01*
X86288571Y29614762D01*
X86193333Y29519524D01*
X86098095Y29471905D01*
X87621904Y28757620D02*
X87050476Y28757620D01*
X87336190Y28757620D02*
X87336190Y29757620D01*
X87240952Y29614762D01*
X87145714Y29519524D01*
X87050476Y29471905D01*
X85717142Y16152858D02*
X85669523Y16105239D01*
X85526666Y16057620D01*
X85431428Y16057620D01*
X85288571Y16105239D01*
X85193333Y16200477D01*
X85145714Y16295715D01*
X85098095Y16486191D01*
X85098095Y16629048D01*
X85145714Y16819524D01*
X85193333Y16914762D01*
X85288571Y17010000D01*
X85431428Y17057620D01*
X85526666Y17057620D01*
X85669523Y17010000D01*
X85717142Y16962381D01*
X86669523Y16057620D02*
X86098095Y16057620D01*
X86383809Y16057620D02*
X86383809Y17057620D01*
X86288571Y16914762D01*
X86193333Y16819524D01*
X86098095Y16771905D01*
X87050476Y16962381D02*
X87098095Y17010000D01*
X87193333Y17057620D01*
X87431428Y17057620D01*
X87526666Y17010000D01*
X87574285Y16962381D01*
X87621904Y16867143D01*
X87621904Y16771905D01*
X87574285Y16629048D01*
X87002857Y16057620D01*
X87621904Y16057620D01*
M02*
